
<svg xmlns="http://www.w3.org/2000/svg" width="1365.333" height="1365.333" version="1.0" viewBox="0 0 1024 1024">
<style>
	path {
		fill: var(--foreground, #000);

		@media (prefers-color-scheme: dark) {
			fill: var(--foreground, #fff);
		}
	}
</style>
<path d="M701 107.9c-11.1 3.4-106.6 31-122 35.3-23.3 6.6-27 7.9-31.2 11.1-5.4 4.1-9.5 11.6-10.4 18.8l-.6 5.6-13.7 3.8c-7.5 2.1-16.3 4.8-19.6 6.1s-12.1 3.9-19.5 5.7c-17.2 4.4-20.7 5.9-22.1 9.4-1.1 2.8-2.6 4.3-4.5 4.3-.8 0-1.4-7.7-1.9-25.4-.6-22.2-.5-25.7.9-28.4 2-3.8 2-5.2.2-5.2-2.8 0-2.7-2 .4-4.7 4.3-4 4.9-8.4 1.7-11.7-7.2-7.2-17.1 1.4-11.7 10.1 1.1 1.8 2.4 3.3 3 3.3 1.4 0 1.3 2.7-.1 3.2-.8.3-.8 1.4 0 4.3.7 2.4 1.1 14.1 1.1 29.7v25.7l-5.7 1.6c-3.2.9-7.7 2.2-9.9 3-2.3.7-6.1 1.1-8.6.8-4.1-.5-4.9-.2-8.5 3.1-2.2 2-4.5 3.6-5 3.6-.9 0-77.8 22-99.3 28.4-13.5 4-37.9 11.2-39.8 11.7-.8.3-5.1-6.7-11.3-18.1-12.6-23.3-14-25.2-21.3-30.5-8.7-6.2-14.6-7.8-25.9-7.3-10.3.5-18.6 3.2-25.1 8.4-2 1.6-12.5 12.3-23.2 23.8-23 24.8-24.9 27.9-24.9 40.1 0 7.1.4 8.7 3.1 13.6l3.1 5.6-6.1 2.2c-4.7 1.6-7.3 2-11.3 1.5l-5.2-.7-4.8 5c-2.6 2.8-10.7 9.4-18 14.7-7.2 5.4-13.3 10.6-13.6 11.5-.4 1.7-10.4 9.7-19.5 15.6-2.7 1.8-4.2 3.4-3.9 4.4.2.9.7 1.5 1.3 1.5 8.1-1.2 14.4-1.4 14.4-.5 0 .8 2.3.9 7.1.5 4.5-.5 7.3-.3 7.7.3s8.1 1.5 17.2 2.1c10.6.7 17.8 1.6 20.2 2.6 4.8 2 7.8 2 10.7 0 2.7-1.9 3.4-1.3 5.1 4.1 2.6 8.2 10.9 23.3 14.2 25.9 6.3 4.8 16 5.1 21.9.7 1.7-1.3 3.2-2.1 3.3-1.9.1.1.8 3.7 1.4 7.9s2.1 10.2 3.2 13.2c2.6 6.9 9.8 14.8 16 17.6 5.4 2.4.9-4.5 49.7 76 41.5 68.4 43 70.5 56.2 77.5 5 2.6 7.9 4.9 10 7.9 4.1 6 13.2 14.3 18.5 16.8l4.5 2.3-.1 14c-.2 15.6.6 18.6 6 24.4l3.2 3.4.2 15.5.3 15.6-26 .1c-21.4.1-28.5.5-40 2.3-7.7 1.2-20.9 3.2-29.4 4.3-37.1 5.1-45.9 10.4-72.2 43.5-5.6 7.1-13 16.1-16.4 20-3.4 3.8-10.4 12.4-15.7 19s-10.6 12.9-11.8 14c-1.3 1.2-5 2.5-9.2 3.2-15 2.5-27.9 12.2-36.7 27.7-6.2 10.9-8.2 18.6-8.8 34.2-.6 15.5.9 24.6 6.3 36.2 10 22 31.8 40.5 53.6 45.7 5.3 1.3 5.3 1.3-6.4 1.4-11.2.1-11.8 0-14.2-2.4-3.1-3.1-3.4-3.1-8.1 0-3 2.1-4.7 2.5-8.8 2.3-4.5-.3-5.2-.6-5.7-2.7-.3-1.3-1.7-3.3-3.2-4.4-2.3-1.7-2.9-1.8-5.4-.6-1.8.9-3.3 2.6-3.9 4.7-.8 2.8-1.3 3.2-4.5 3.2-5 0-8 1-8 2.6 0 .8.3 1.4.8 1.4 9.6.5 217.7.4 220-.1 1.7-.4 3.2-.4 3.2 0 0 .3 10 .6 22.3.5 12.6 0 22.7.4 23.5.9.6.5 1.2.5 1.2.1 0-.6 29-.9 68.3-.8 37.5 0 69-.3 70-.8.9-.5 1.7-.5 1.7-.1s7.8.8 17.2.7c11.2 0 17.6.4 18 1 .5.8.8.8.8.1 0-.8 27-1.1 85.6-1 47.1 0 85.8-.3 86-.7.3-.4 1-.5 1.7-.2 2.2.8 14.8 1.1 19.4.4 2.4-.4 4.5-.4 4.7-.1s39.9.5 88.3.4c48.3-.1 99.2-.2 113.1-.3 20.8 0 25.2-.2 25.2-1.4 0-1.5-2.1-2.6-5.1-2.6-1.3 0-1.9-.7-1.9-2.4 0-3.6-4.6-7.6-8.7-7.6-3.9 0-7.8 3.3-8.9 7.4l-.6 2.6h-31.5l-1.1-2.5c-1.5-3.3-5.7-3.3-9.2 0-2.6 2.5-3.2 2.6-12.6 2.3l-9.9-.3 5-1.8c13.4-4.6 31.3-20.7 38.2-34.2 7.6-14.9 10.3-26.5 10.3-44 0-12-1.8-21.3-6.4-32.5-4.2-10.5-8.8-17.2-18.6-27.1-7.9-7.9-11-10.3-18-13.7-8.4-4.2-21.8-8.2-27.1-8.2h-2.8l-.3-21.3c-.3-19.8-.5-21.5-2.6-25.4-5-9.6-13.6-15.9-22.4-16.7l-4.3-.4.2-11.3c.2-11.3.2-11.4 3-13.5 1.5-1.1 7.1-5.1 12.3-8.9 12.3-8.8 19.5-15.7 23.1-22.1 2.8-4.9 3.2-5.2 7.8-5.8 2.7-.4 8.1-2.2 11.9-4.2 15.5-7.7 24.2-23 24.2-42.4q0-18.45-11.4-30.9c-2.3-2.5-7.4-8.9-11.2-14.1-12.2-16.5-42.5-58.8-51.6-71.9l-8.8-12.6v-47.8l2.9-4.6c10.9-17.1 11.2-44 .6-61.4-3.3-5.5-3.5-6.3-3.5-15 0-11-2-21.2-5.6-28.4-3.4-7-13.4-17-20.9-21-3.3-1.7-18.6-7-34-11.6-15.4-4.7-36.2-11-46.3-14.1-10-3.1-21.4-6.3-25.2-7.2l-7-1.7v-7c0-6.5-.2-7.1-3.3-10.2-2.4-2.4-5.5-4-10.8-5.5-7.8-2.4-11-4.3-9.4-5.9.6-.5 4.8-1.9 9.5-3.1 10.6-2.7 55.9-15.3 78.2-21.8 9.9-2.9 17.3-4.5 18-4 3 1.8 10.5.4 19.3-3.6 1.7-.8 4.4-1.8 6-2.3 1.8-.5 4-2.4 5.4-4.6 1.7-2.6 3.6-4.1 6.4-4.9 6-1.8 13.9-9.6 17.2-17 5.4-12.1 3.1-28.3-5.6-38.2-7.4-8.4-22.5-13.5-32.2-10.8-2.9.8-4.6.7-7.6-.5-3.4-1.3-4.4-1.3-10.2.2-3.5 1-8.9 2.4-11.9 3.2-3 .7-6.2 1.8-7.2 2.3-1.3.7-1.7.4-2.2-1.6-.4-1.3-2.5-4.4-4.9-6.8-7.1-7.4-15.1-8.3-30.7-3.7m23 6.1c4.2 2.1 8 7.7 5.7 8.5-.8.4-2.9-.9-5-3-3.1-3.1-4.1-3.5-8.8-3.5-3 0-8.8 1.1-12.9 2.4-4.1 1.4-14 4.3-22 6.6s-20.3 5.9-27.5 8c-15.6 4.5-36.9 10.7-56 16.1-25.6 7.3-37.6 10.9-41.1 12.4-3.6 1.5-7.4 6.7-7.4 10.2 0 1.2-.8 2.9-1.7 3.9-1.7 1.7-1.8 1.6-2.1-2-.5-5.6 3.3-12.6 8.4-15.3 2.2-1.2 20.4-6.9 40.5-12.7 80-23 96.7-27.8 104-30.2 14-4.5 19.1-4.8 25.9-1.4m47.2 10c4 4.6 10.9 18.3 13.2 26 2.1 7 2.2 25.7.2 30.5-2.5 5.8-3.6 4.2-3.6-5.1 0-17.9-6.1-37.6-15.5-49.9-1.9-2.5-3.5-4.7-3.5-5s1.3-.5 2.9-.5c2.2 0 3.8 1 6.3 4m21.7 0c3.6 1.8 10.1 8.9 10.1 11 0 .4-2.1-1.4-4.7-4-4.9-4.9-9.7-7-16-7-3.2 0-4.8-1.1-3.5-2.5 1.2-1.2 9.8.3 14.1 2.5m-32.4 1.6c4.2 4.6 8.9 13.3 12.1 22.7 1.9 5.4 2.7 10.1 3.1 18.5.8 15.5-1.1 21-7.8 22.7l-2.7.7 1-5.4c3.3-17.7-5-47.4-16-57.2-2.9-2.5-2.8-3.1 1.1-4.4 5.1-1.6 5.7-1.4 9.2 2.4m-42-1.2c1.8 1.3 1.4 1.5-4.5 3.4-10.5 3.2-59.1 17.1-107 30.6-24.5 7-45.8 13-47.4 13.6-3.5 1.1-4 .8-3.1-1.9.5-1.6 3.1-2.8 11.8-5.5 11.4-3.6 79.4-23.2 107.7-31.2 8.5-2.4 19.8-5.7 25-7.3 10.7-3.3 14.7-3.7 17.5-1.7m26 4.9 2.7 2.2-4.9 1.7c-8.1 2.9-73.7 21.8-132.3 38.3-19 5.3-47.5 13.4-63.5 18-39.7 11.5-38.1 11.1-40.5 9-1.1-1-2-2.1-2-2.5 0-.7 7.6-2.9 30-9.1 3.6-.9 14.4-4.1 24-6.9 19.7-5.8 32.1-9.4 52.5-14.9 13.1-3.6 59.9-17.1 96-27.6 8.8-2.6 19.4-5.6 23.5-6.7s8.2-2.4 9-2.9c2.2-1.2 2.6-1.1 5.5 1.4m-118.2 69.4c10.3 3.5 11.2 4 11.9 6.8s.4 52.3-.4 53c-.7.7-22.4 5.2-23 4.8-.5-.2-.8-14-.8-30.6 0-33.1-.3-34.7-5.7-34.7-2.1 0-2.4.3-1.7 1.7.5 1 1 10 1.2 20l.3 18.2-2.8 3c-2.6 2.8-4.8 3.5-29 9.2-25.5 6.1-26.2 6.2-28.8 4.5l-2.6-1.7.3-19.6.3-19.5 2.8-2.4c1.5-1.3 5.1-3 8-3.8 35.8-10 50.6-13.5 54.5-13.1 2.4.3 9.3 2.2 15.5 4.2m-125.9 3.6c7.2 9.4 11.6 25.8 9.8 37-1.5 9.7-4 12.1-16.2 15.2l-8 2c-1.3.4-1.5-1-1.2-10.3.6-16.5-4.2-32.1-11.7-38.4l-2.9-2.5 11.6-3.1c15.1-3.9 15.6-3.9 18.6.1m-269.2 13.4c8.3 3.7 12.9 9.3 22.6 27.7 7.9 15 9.1 18.6 5.9 18.6-.8 0-2 .7-2.7 1.5-1.1 1.3-2.5-.8-9.2-13.2-4.3-8.1-8.6-15.5-9.5-16.5-2.4-2.7-7.5-3.3-11.7-1.3-2 1-5.7 4.1-8.2 6.9l-4.6 5.1-6.2-6.1c-6.1-6-12.7-9.4-18.3-9.4-3.3 0-2.9-1.2 2.1-5.8 11.8-10.9 26.2-13.6 39.8-7.5m237.9-2c1.1 1.3 1.1 1.7.1 2.1-.8.2-1 .8-.3 1.5.7.9-.1 1.2-2.7 1.2-4.8-.1-7.2.5-7.2 1.7 0 .6.7.8 1.5.5.8-.4 1.7-.1 2.1.5.4.7.3.8-.4.4-.8-.5-1.2.1-1.2 1.4 0 1.2-.5 1.8-1 1.5-.6-.4-.8-1.1-.5-1.6.4-.5.1-.9-.4-.9-1.4 0-1.3 1.1.2 3.2.9 1.1 1.8 1.4 2.8.7.8-.5 1-.9.6-.9-.5 0-.5-.5-.1-1.1.5-.8.9-.8 1.4.1.6 1 1.4.9 3.8-.2 2-1.1 3.4-1.2 4.3-.6 1.1.8 1 .9-.3.4-1-.3-1.8-.1-1.8.4 0 .6.5 1 1 1 .6 0 1 .5 1 1.1 0 .5-.4.8-.9.5-.5-.4-1.1-.3-1.3.2-.3.7-24.1 8.2-26 8.2-2.1 0-.4-3.3 2.2-4.3 1.7-.6 3-1.5 3-1.9 0-1.1-.2-1-3.9.8-1.8.9-3.5 1.3-3.8 1-.4-.3-.1-.6.5-.6.7 0 1.2-.4 1.2-1 0-.5-.8-.7-1.7-.3-1.6.5-1.7.4-.2-1.1.8-.9 2.6-1.8 4-2.1 2.3-.4 2.4-.4.4 1.1-1.9 1.5-1.9 1.5.6.9 1.6-.4 3-.2 3.3.4.9 1.4 3.6 1.4 3.6 0 0-.5-.4-.8-.9-.4-.5.3-1.3 0-1.7-.6-.4-.8-.3-.9.4-.5s1.2.3 1.2-.3c0-.5-.6-1.2-1.2-1.4-.8-.3-.7-.6.4-.6 1.5-.1 3.5 3.3 3 5.1-.1.5.5.8 1.3.8 1.2 0 1.1-.6-.5-3.3-2.4-3.8-2.6-5.4-.5-3.7.9.7 1.8 1.1 2 .8.3-.3-.1-1.1-1-1.8-1.2-1-1.8-1-3 0-.8.7-1.5.9-1.5.4-.1-.5-.8.2-1.6 1.6s-1.3 1.7-1 .7c.5-1.4.1-1.6-2.2-1.1-1.5.4-3.7 1-4.9 1.5-2.1.8-5.3-1.5-5.3-3.8 0-1 25.5-8.9 29.6-9.2 1.2 0 2.8.6 3.5 1.6m-1.5 7.6c.1.9-.1 1.5-.6 1.2s-1 0-1.2.7c-.3.7-.7.5-1.1-.6-.5-1.1-.3-1.5.5-1s.9.2.5-1c-.5-1.1-.3-1.6.5-1.4.6.2 1.2 1.2 1.4 2.1m-36.8 2.4c1.1 1.6 3.1 5.1 4.5 8 7.2 14.1 9.1 36.3 3.2 36.3-1 0-1.2-1.2-.8-5.3 1-10-4.1-28.1-10.3-36.2-1.9-2.5-3.4-4.7-3.4-5s1.1-.5 2.4-.5c1.5 0 3.2 1 4.4 2.7m-9.6 4c2.2 2 2.3 3.3.3 3.3-.8 0-1.5.7-1.5 1.6 0 1 .6 1.4 1.4 1.1 1.1-.4 1.3-.1.9 1-.5 1.2-.3 1.4.8.8 1.2-.7 1.2-.5.1.6-1.1 1.2-1.4 1.2-2.3-.1-.8-1.1-.9-.9-.4.9.5 1.5.2 2.6-.6 3.2-1 .6-.8.8.8.7 1.1-.1 1.9-.7 1.6-1.4-.4-1.2 2.6-2.9 3.5-1.9.3.3 0 .5-.6.5-1.9 0-1.4 1.8.6 2.2 2.5.5-57.2 18.6-141.3 42.8-9.9 2.9-18.8 5.4-19.7 5.7-3 .9-2-.6 1.5-2.2 2.7-1.2 2.8-1.3.5-.9-2 .5-2.8.1-3.3-1.5-.3-1.2-1.1-1.8-1.7-1.5-.7.5-.8.2-.3-.6.6-1 1.2-.7 2.5 1 1.1 1.5 1.9 1.9 2.4 1.1.4-.6.2-1.1-.5-1.1s-.9-.3-.6-.7c.4-.3.3-1.1-.1-1.8-.4-.6.2-.1 1.3 1.2 1.4 1.6 2.4 2 3.5 1.3.9-.5 1.9-.5 2.7.2.8.6 1.6.8 2 .4.3-.3.2-.6-.4-.6s-1.4-.8-1.8-1.8c-.5-1.3-.3-1.4.6-.5.6.6 1.8.9 2.7.6 1-.4 1.3-.2.8.5-.4.7-.3 1.2.2 1.2 1.9 0 2.3-3.4.6-4.9-1.5-1.5-1.6-1.5-1.1.1.6 1.7-.3 1.7-3.6.3-1.4-.6-1.6-1-.6-1.6.8-.4 1-1.1.6-1.5-.3-.4-1.4-.1-2.3.7-1 .8-1.9 1.3-2 1.2-.8-.5-6.3 1-6 1.6.2.3-.6.7-1.9.7-3.2.2-5.4-5.1-2.7-6.5.9-.4 13-4.1 26.7-8 13.8-4 35.4-10.3 48-14.1 12.7-3.7 29.3-8.6 37-10.8 7.7-2.3 21.4-6.3 30.5-9s17.1-5 17.9-5.1c.8 0 2.3.6 3.3 1.6m236.6 8.7c11.6 3.9 12.2 4.2 12.2 6.8v2.7l-11.6-3.9c-6.5-2.2-12.8-4.7-14-5.5-2.9-1.9-3.4-6.2-.6-5 .9.5 7.2 2.6 14 4.9m-462.1 1.8c7.3 3.4 14.1 13.3 15.8 23 .7 3.6.5 4-6.3 10.5-5.9 5.8-7.1 7.6-8.3 12.2-1.2 4.7-2 5.8-5.7 8.2-8.4 5.3-20.5 6.4-28.8 2.5-10.9-5.1-15-17.6-9.3-28.7 1.8-3.6 15.4-19.3 22.5-26.1 2.2-2 4.8-3.8 5.9-4.1 3.1-.8 9.6.4 14.2 2.5m463.6 10.9c4.5 1.1 8.6 2.4 9.1 2.9s-1.3 1.2-3.9 1.6c-3.7.5-5.6.3-8-1-4.1-2.2-9.6-6.9-7.2-6.2 1 .3 5.5 1.5 10 2.7m25.2 14.3c5.5 1.4 13.8 3.8 18.5 5.5 4.7 1.6 22.7 7.3 40 12.6 17.3 5.2 33.9 10.7 36.8 12.1 6.8 3.3 15.5 12.2 18.9 19.3 1.5 3.4 2.8 8 3.1 11.9l.5 6.3-6.6-4.9c-10.9-8.3-24.3-12-37-10.2-17.3 2.5-29.1 11.3-37.3 27.7l-3.9 7.8-.2 25.5c-.1 23.5 0 25.7 1.8 28.6 1.1 1.9 1.6 3.9 1.2 5-.4 1.2-.3 1.5.5 1q1.2-.75.6.9c-.6 1.4-.8 1.4-2-.2s-1.3-1.5-1.4 1.5c0 2.4.3 3.1 1.3 2.6.9-.6.9-.4.1.7-1.5 2-1.5 5.9-.1 5.9.7 0 .6.4-.3 1.1-1.3.9-1.3 1 0 .6 1.5-.4 2.2-3.7 1-4.7-.4-.3 0-1.6.7-3 1-1.9 1.3-2.1 1.3-.7 0 1 .4 1.6.9 1.3 1.6-1.1 2.2 2.7.6 4.4-1.9 2.1-1.9 3.4 0 2.6 1.3-.4 1.4-.2.5 1.4-.6 1.1-1.5 2-1.9 2-.5 0-.7.9-.4 2s1 2 1.5 2c.6 0 .8-.7.4-1.5-.3-.8-.1-1.5.4-1.5s1.1-.8 1.3-1.8c.3-.9.4-.6.3.8-.2 1.4-.6 3.3-1.1 4.3-.5 1.1-.3 2.3.5 3 1 1 1.2.8.7-.6-.4-.9-.2-1.7.4-1.7s.8-.4.5-.8c-.2-.4-.1-1.4.5-2.2.7-1.2.9-1 .9.9 0 1.7.4 2.2 1.6 1.7.8-.3 1.2-.2.9.4-1 1.6.5 5.1 1.8 4.4.7-.4.9-.4.5.1-.4.4-.3 1.4.3 2.2.9.9.8 1.3 0 1.3-.6 0-1.1-.5-1.1-1 0-.6-.5-1-1.1-1s-.9.7-.5 1.5c.3.8.1 1.5-.4 1.5-.6 0-1-.5-1-1.1s-.6-.9-1.4-.6-1.7.1-2-.6c-.2-.7-.8-.2-1.1 1-.7 2.4-1.6 2.8-2.9 1.6-1.6-1.6-3.3-1-3.3 1.3 0 1.3.3 2.4.8 2.4s.9.5.9 1.1c0 .5-.4.8-.9.4-1.3-.7-1 3.8.3 4.7.5.4 1.5-.1 2.2-1s1.5-1.4 1.9-1c.7.6 0 1.7-3.5 5.6-2.2 2.5-2.3 7.2-.3 8.9 1.4 1.1 1.5 1.4.3 1s-1.7.3-1.8 2.5c-.2 1.8.2 2.7.8 2.3.5-.3 1-.2 1 .4 0 .5-.6 1.1-1.2 1.4-1 .3-.8 1.2.5 3.6 1 1.7 1.4 3.1.8 3.1-.5 0-1.1-.6-1.4-1.3-.3-.6-.4-.2-.4 1 .1 1.3.3 2.3.5 2.3 1.4 0 6.2-4.4 6.2-5.6 0-.8.5-1.2 1-.9.6.3 1 .1 1-.4 0-2-2.2-1.1-2.7 1-.6 2.1-.7 2.1-2 .4-.9-1.3-1.3-1.5-1.3-.5 0 1.1-.3 1.1-1.2.2s-1-1.5-.2-2c.6-.4 1.4-1.7 1.8-3 .4-1.2 1.2-2 1.7-1.6.6.4.6 1.1-.2 2-.6.8-.9 1.8-.5 2.1.4.4 1.1.1 1.6-.7 1.3-2 1.2-2.6-.3-4.2-.7-.7-2.1-2.5-3-3.9-1.5-2.2-1.5-2.6-.2-2.6.9 0 1.8 1.1 2.1 2.4.4 1.2 1 2.3 1.5 2.3s.6-.7.3-1.5c-.4-.8-.2-1.5.3-1.5.6 0 1.5-1.1 2.1-2.4.8-1.8.7-2.7-.6-4-1-.9-1.2-1.6-.5-1.6s1.5.5 1.9 1.1c.5.8.9.8 1.4-.1.5-.7.8-.2.8 1.4 0 1.4-.4 2.3-.9 2s-.9-.1-.9.4 1 1.2 2.2 1.5c1.2.4 1.9.9 1.5 1.3s-.2 1.3.5 2.1c.6.7.7 1.7.3 2.1s-1 .2-1.2-.4-.9-1.9-1.6-2.8c-1.2-1.7-1.4-1.7-2.8 0-1.2 1.6-1.2 1.7.4 1.1 1.1-.4 1.7-.2 1.7.8 0 .8-.5 1.4-1.1 1.3-.6-.2-1.3.2-1.6.8-.2.6.3 1.1 1.2 1.1.8 0 1.5-.4 1.5-.9 0-.4.5-.8 1-.8.6 0 1 .7 1 1.5 0 1.4-1.1 1.9-3.7 1.6-.7-.1-1.3.3-1.3.9 0 .5.7 1 1.6 1 1 0 1.4.5 1 1.5-1.6 3.9-1.6 4.7 0 2 .9-1.7 2-3.2 2.5-3.5.4-.3.9-1.2 1.1-2s1-2.1 1.8-2.8c1.1-1 1.2-1.5.3-1.8-.7-.3-1.3-1-1.3-1.5 0-.6.7-.6 1.8-.1 1.2.6 2.2.4 3.4-.9 1.4-1.5 1.4-1.8.2-2.3-.8-.3-1.4.1-1.4.9s-.4 1.5-1 1.5c-1.4 0-1.2-1.1.4-3.3.9-1.2 1.6-1.4 2.1-.8.3.6 1.2 1.1 1.8 1.1.9 0 .9-.2 0-.8-.8-.5-.8-1.2.2-2.5.8-1.2 1.5-1.4 2-.8.3.6.1 1.1-.6 1.1-1 0-1 .3-.2 1.1.9.9.5 1.8-1.3 3.8-5.8 6-12.1 16.8-14.4 24.8-.7 2.4-1.7 4-2.3 3.6-.6-.3-.7-.1-.3.5.9 1.6-2 22.4-4.4 31.2-4.9 17.5-18.1 34.3-30.7 39.1-3 1.1-2.6.6 2.1-2.9 3.1-2.4 2.3-3.1-.9-.8-1.1.7-5.6 2.9-10.1 4.9-7.8 3.6-9.2 3.8-42 7.7-18.6 2.2-34.9 4.2-36.1 4.5s-3.5 1.6-5 2.9l-2.8 2.4-.5 19.9c-.6 23-1.3 25.2-9 29-5 2.4-3.7 2.3-69 8.3-23.4 2.2-47.2 4.4-53 5-23.5 2.3-24.2 2.3-27.8 0-5.6-3.5-6.5-7.2-6.6-27.4-.2-17.7-.2-17.8-2.6-19.8-2.3-1.9-3.4-2-12.5-1.4-5.5.3-18.5 1.5-29 2.6-23.7 2.5-24.8 2.5-33.1-.1-5.7-1.8-7.7-3-12.5-7.9-6.2-6.4-11-15.1-13.4-24.5-2.3-9.1-2.3-180.9.1-192.3 3.3-16 12.4-30.6 24.1-38.6 8.7-5.9 14-7.7 38.7-13.2 35.3-7.9 80.8-17.8 103.1-22.4 7.7-1.6 17.8-3.8 22.5-4.9 4.7-1 16.8-3.6 27-5.6s28.4-5.9 40.5-8.5c12.1-2.7 24.9-5.3 28.5-6 3.6-.6 15.5-3.1 26.5-5.5 24.7-5.4 23.5-5.2 32-5.4 4.4 0 10.7.8 17 2.3M497 274.9v12.9l-3.2 1.1c-1.8.5-4.9 1.3-6.8 1.6-7.6 1.5-99.4 21.7-113 25-19.6 4.6-27.1 8.4-37.5 18.9-9.4 9.4-14.2 17.7-17.7 30.6-2.3 8.3-2.3 9.4-2.3 56.2 0 26.3-.2 47.8-.5 47.8-.5-.1-26.5-42.9-34.1-56.3l-4.5-8 1.9-3.8c1-2.1 2.4-6.7 3-10.2 1.4-8.2-.8-17.7-5.9-26-3.6-5.8-3.6-5.8-2-9.7 3.7-9.3 4-18.7 1.1-32.5l-.6-3 11.3-3.1c6.2-1.7 41.3-11.8 78.1-22.3 56-16 67.4-19 70.8-18.5 3.5.6 4.6.2 8.5-2.5 5.7-4.2 29.3-10.8 32.3-9.1 2.6 1.4 6.6 1.2 12.6-.4 9.1-2.5 8.5-3.3 8.5 11.3m-255-6c3.2 2.3 6.6 8.5 13.1 23.6 6.9 16.2 11.9 31.4 11.9 36.1-.1 11.5-11.3 21.5-25.7 23-10.6 1.1-18.5-3-23.7-12.2-1.4-2.6-2.6-4.8-2.6-4.9 0-.2 1.5.4 3.3 1.3 8.1 4.2 28.3.6 36.6-6.5 4.9-4.1 5.5-6.5.9-3-8.3 6.2-17.9 8.7-26.5 6.7-12.2-2.7-17.7-7.5-22.5-19.4-2.7-6.9-3.2-9.4-3.3-16.6 0-7.8.3-9 3.3-14.2 3.6-6.2 7.3-9.8 13.3-12.9 8.2-4.2 17-4.6 21.9-1m326.5 2.5c4.5 1.6 5.2 1.2-6.5 3.6-3 .7-6.3 1.4-7.2 1.7-1.5.4-1.8-.3-1.8-4.5v-5l5.8 1.4c3.1.7 7.5 2 9.7 2.8m-298.1 8.1c.5 1.5-1.1 3.1-2.1 2.1-.4-.3-.1-.6.6-.6s.9-.5.6-1c-.4-.6-1-.8-1.5-.5s-1.1.2-1.4-.3c-.2-.4.4-.8 1.4-.9s2.1.5 2.4 1.2m-112.8 24.4 2.4 1.9-4.7 1.8c-2.7.9-6.3 2.3-8.2 3.1-3 1.2-3.6 1.1-5.3-.3-3-2.8-2.1-3.9 5-6.1 8.6-2.6 8-2.6 10.8-.4m-25.7 3.1c2.9 1.5 7.7 9.9 10.2 17.5 1.5 4.8 2.3 9.6 2.3 15.2.1 7.3-.2 8.5-2.2 10.5l-2.3 2.3.6-7.1c1.1-11.3-3-25.6-9.9-34.7-3.1-4.1-2.5-5.8 1.3-3.7m27.4 5.6c-.7.3-.9 1.3-.6 2.2.4 1.4.3 1.4-.5.2-1.2-1.6-.7-3 1.1-2.9.9 0 .9.2 0 .5m-31.9 2.9c.9 1.4 1.4 2.5 1.1 2.5-2.6 0-27 13.8-28.1 15.9l-1.1 2.2-1.6-2.5-1.7-2.5 11.3-7c6.1-3.9 12.6-7.9 14.2-9.1 3.8-2.5 3.9-2.5 5.9.5m35.6-2.1c0 .3-.4.8-1 1.1-.5.3-1 .1-1-.4 0-.6.5-1.1 1-1.1.6 0 1 .2 1 .4m6 1.7c0 .5-.4.9-.8.9-.5 0-.9-.7-.9-1.5s.4-1.2.9-.9c.4.3.8.9.8 1.5m-22.6 0c-.4.8.1.9 1.7.5 2-.6 2.1-.5.6.4-1.9 1.2-4.1.4-3.2-1.1.4-.5.8-.9 1.1-.9s.2.5-.2 1.1m19.6.9c0 .5-.7 1-1.6 1-.8 0-1.2-.5-.9-1 .3-.6 1-1 1.6-1 .5 0 .9.4.9 1m-14 1c0 .5-.5 1-1.1 1-.5 0-.7-.5-.4-1 .3-.6.8-1 1.1-1 .2 0 .4.4.4 1m6.9.2c.8-.3 1.1 0 .7.7-.4.6-1.6 1.1-2.7 1.1s-2.9.5-4 1c-1.1.6-1.9.7-1.9.1 0-.5.7-1.2 1.6-1.5.8-.3 1.2-1 .9-1.6-.4-.6.2-.7 1.7-.1 1.3.4 2.9.6 3.7.3m-41.9 9.2c0 .2-.7.7-1.6 1-.8.3-1.2.2-.9-.4.6-1 2.5-1.4 2.5-.6m7.4 2.5c1.5.6 1.6.9.5 1.3-.8.3-2-.1-2.7-.8-1.4-1.5-.7-1.7 2.2-.5m-3.7 2.1c.3 1 .2 1.1-.4.4-.4-.6-1.5-1.4-2.3-1.7-1.1-.5-.9-.6.4-.4 1.1.1 2.1.9 2.3 1.7m-16.2 2.9c-.8 1.4-2.5 1.4-2.5 0 0-.5.5-.7 1-.4.6.3 1 .1 1-.6s.3-1 .6-.6c.3.3.3 1-.1 1.6m680.1.5c8.1 2.1 17.1 7.5 21.9 12.9 17.6 20.2 17.4 52.2-.6 69.8-8.1 8-14.4 10.4-27.4 10.4-9.1 0-10.6-.3-16.5-3.1-15.7-7.5-25.9-22.9-27.5-41.6-1.9-21.3 10.4-42.2 28.2-47.8 7-2.3 15-2.5 21.9-.6m-672.9.2c-.3.3-1.2.4-1.9.1-.8-.3-.5-.6.6-.6 1.1-.1 1.7.2 1.3.5M94 338.9c0 .5-.7 1.4-1.5 2.1s-1.5 1-1.5.7-1.6.1-3.4.8c-4.9 2.1-5.6.1-.9-2.4 4-2.1 7.3-2.7 7.3-1.2m-15 7c0 .9-2.4 2.1-4.2 2.1-.6 0-.6-.6.2-1.5 1.4-1.6 4-2 4-.6m109.5 4.2c.4 1.1 1.1 1.6 1.7 1.3.7-.4.7-.9 0-1.3s-.8-1.2-.2-2.1c.8-1.2 1-1.2 1 .4q0 1.8 1.5 1.2c2.3-.9 1.8 1.2-.7 2.5-1.9 1-2 1.2-.4 2.1.9.5 1.4 1.3 1.1 1.9-1 1.6 2.9-.3 4.5-2.2 1.3-1.5 1.8-1.6 3.2-.5 1.7 1.2 1.6 1.4-.4 3.2-1.9 1.6-2.1 1.6-.9.1 2.3-2.9.3-3.2-2.3-.4l-2.5 2.7h2.6c1.8 0 2.4.4 2 1.4s-.1 1.3.8.9c.8-.3 1.3-.8 1.1-1.2-.3-.4.4-1.8 1.5-3.1 1.2-1.5 1.7-1.8 1.3-.8-.3 1-.1 1.8.5 1.8s1.1-.6 1.1-1.4.5-1.8 1.1-2.1c1.9-1.2 2.1.3.5 2.8-1.3 1.9-1.4 3-.7 5.1 1.3 3.2 2.4 3.5 1.3.3-.6-1.5-.2-3.3 1.1-5.7 1.7-3.1 1.8-3.2 1.3-.7-.5 1.9-.3 2.6.6 2.5 2.2-.5 2.1 6.3-.2 10-3.5 5.7-9.6 6.7-13.8 2.1-1.7-1.7-11.2-22.6-11.2-24.5 0-1.3 2.9 1.8 3.5 3.7m17.8.9c-.3 1.1-.9 1.7-1.5 1.4-.5-.3-.4-1.2.3-2 1.6-1.9 1.8-1.8 1.2.6m-33.5 1.4c-.7.8-1.5 1.2-1.7 1.1-.5-.6 1-2.5 2-2.5.5 0 .4.6-.3 1.4m23 0c-.7.8-1.5 1.2-1.7 1.1-.5-.6 1-2.5 2-2.5.5 0 .4.6-.3 1.4m-27.7 1.3c.7 1 1 1.5.5 1.1-.4-.3-1.6.2-2.7 1.3-2.3 2.3-2.5 3.3-.4 2.5.8-.3 1.5 0 1.5.7 0 .8.3.8.9-.2.5-.7 1.4-1.1 1.9-.7.6.4 1.6-.4 2.3-1.6 1.3-2.4 3.9-5.3 3.9-4.4 0 .4-1.1 2.4-2.4 4.5-1.4 2.1-2.2 4.2-1.9 4.5.4.3.2.6-.4.6s-1.3.7-1.7 1.5c-1.2 3.2 1.6 1.3 2.9-1.9.8-1.9 1.9-3.7 2.4-4 .9-.6 3.5 5.4 2.7 6.2-.3.2-.8-.8-1.2-2.3l-.7-2.7-1.6 3.4c-.8 1.8-2.2 3.9-2.9 4.7-1.2 1.2-1.5 1.2-2.3 0-.5-.8-.6-2.1-.3-2.9 1.3-3.2 1.7-5.5.7-4.5-1.8 1.9-3.3 6.5-2.2 6.5.6 0 .8.7.5 1.7-.4 1-.4 1.4 0 1.1.4-.4 1.6-.2 2.8.4 1.1.6 1.8.7 1.4.3-.3-.3.3-1.7 1.4-3.1 1.9-2.1 2.2-2.2 3.3-.7.8 1.1 1.4 1.3 1.9.5.4-.7 1.4-1.2 2.3-1.2s1.4.3 1 .6c-.3.3.3 1.5 1.3 2.6 4.1 4.5 3.2 9.7-2.5 13.4-5.8 3.8-11.1 1.2-15.6-7.9-3.5-6.7-8.2-19.8-7.5-20.5.3-.2 1.5 1.7 2.7 4.2 1.1 2.5 2.6 4.3 3.1 4 .6-.4.7-.9.1-1.3-1.7-1-3.5-5.1-2.3-5.1.5 0 1 .4 1 .9s.9.7 2 .4c1.5-.4 1.9-1.1 1.5-2.4-.8-2.4.8-2.5 2.6-.2M181 363c0 .5-.5 1-1.1 1-.5 0-.7-.5-.4-1 .3-.6.8-1 1.1-1 .2 0 .4.4.4 1m91.5 13.4c4.5 14.9-.2 25.9-14.9 35.5-8 5.2-13.9 7.5-23.6 9.1-6.5 1.1-8.3 1.1-13.1-.3-10.8-3.2-17.4-10.4-20.6-22.3-.8-3.1-1.3-5.8-1.1-6s2.6.8 5.3 2.1c10.6 5.3 22.5 4.1 38-3.5 10.3-5.1 18.6-11.7 22.8-18 2.9-4.4 3.3-4.8 4.5-3.2.7.9 1.9 3.9 2.7 6.6m457.9 51.1c-.4.8-1.1 1.2-1.6.9-.6-.4-.5-1 .3-1.5 1.9-1.2 1.9-1.1 1.3.6m-460.4 5c2.7 2.6 10.7 14.9 14.4 22.2 4 8-.2 18.1-9.3 21.9-11 4.6-19.4-1.1-29.1-19.9-4.5-8.8-4.8-11.4-2.1-17.2 3.4-7.4 9-10.8 17.4-10.2 4.6.3 6.3.9 8.7 3.2m463-3.1c0 .3-.4.8-1 1.1-.5.3-1 .1-1-.4 0-.6.5-1.1 1-1.1.6 0 1 .2 1 .4m2.5 2.6c.4.6.1.9-.7.8-.7-.2-1.2.5-1.2 1.4.1 1-.2 1.8-.7 1.8-1.4 0-1.1-3.8.4-4.3.6-.3 1.3-.6 1.4-.6.1-.1.5.4.8.9m6.3 7.5c0 1.4-.4 2.5-.8 2.5-2 0-.3 3.1 2.3 3.9 2.3.8 3.2.7 4.4-.5 2.1-2 3-.9 1.1 1.3-.9 1-1.3 2.4-1 3.2.3 1 0 1.2-1.3.7-1.1-.4-2.2-.2-2.6.5-.4.6-1.2.8-1.9.4-.9-.6-.6-1.1 1-2 1.5-.8 1.9-1.5 1.1-1.9-.6-.4-1.8 0-2.7.8-1.5 1.6-3.4 1.3-3.4-.4 0-.5.7-.7 1.5-.4 1.8.7 2-1.1.3-2.2-.6-.4-1.7.1-2.4 1-.7 1-1.7 1.5-2.3 1.1-.6-.3-1.1-.2-1.1.4 0 .5.9 1.3 2 1.6 1.6.5 1.8 1 1 2.5-.7 1.3-.6 1.9.5 2.4.8.3 1.7.1 2-.4.4-.6.1-1-.5-1s-.8-.5-.4-1.1c.4-.8.9-.7 1.5.2 1.4 2.3 1.1 2.9-2.1 4-1.6.6-2.9 1.4-2.8 1.7.1.4-.2 1.5-.7 2.5-.6 1.4-1 1.5-2.1.6-1.7-1.4-1.8-3.3-.2-5.8.9-1.5.8-2.2-.4-3.4-1.8-1.9-3.3-1-1.7 1 .9 1 .6 1.2-1.8.9-2.1-.2-3.4.3-4.2 1.5-.9 1.5-.8 1.9.4 1.9 1.8 0 1.8.2.3 3.5-.8 1.8-1.4 2.2-2 1.3-1.1-1.8-1-3 .2-2.3.6.3 1 .1 1-.4 0-1.4-1.7-1.4-2.5-.1-.4.6-1.1.8-1.6.5-.5-.4-.5-1.1.1-1.8s1.9-2.3 3-3.6 2.3-2.1 2.7-1.8c.3.4 1.2-.1 1.9-1.1 1.6-2.1 1.7-3.2.4-3.2-.5 0-1 .7-1 1.5s-.4 1.5-1 1.5c-1.3 0-1.3-.6.2-3 .7-1 1-2.2.7-2.5-1.1-1.1-4.1.8-5 3.1-.4 1.3-1.3 2.4-1.9 2.4s-.5-1 .2-2.6c.9-2 .9-2.7-.1-3.3-1-.7-1-1-.1-1.6.7-.4 1.6-.2 2 .4.5.9 1.1.9 2.3-.3 2-2.1 2.7-2 2.7.1 0 1.5.2 1.6 1 .3.5-.8 1.3-1.1 1.7-.6s.2 1.1-.4 1.3c-2.1.8-1.4 2.6.7 2 2.2-.6 2.8.8.8 1.6q-1.2.6.3.6c.9.1 1.9-.6 2.3-1.4.3-.8 1.2-1.5 2.1-1.5.8 0 1.5-.6 1.5-1.4s.6-1.6 1.4-1.9c.7-.3 1.6-1.5 1.9-2.8.4-1.6.3-1.9-.6-1-1.6 1.6-3 1.4-1.5-.4 2-2.2 3.6-1.8 3.6 1m-5.8-.5c0 .5-.2 1-.4 1-.3 0-.8-.5-1.1-1-.3-.6-.1-1 .4-1 .6 0 1.1.4 1.1 1m7.7 2.2c-.3.8-.6.5-.6-.6-.1-1.1.2-1.7.5-1.3.3.3.4 1.2.1 1.9m4.6 1.3c-.3.9-.8 1.4-1 1.1-.3-.3-.2-.9.2-1.5.9-1.6 1.5-1.3.8.4m-15.3.9c0 .3-.4.8-1 1.1-.5.3-1 .1-1-.4 0-.6.5-1.1 1-1.1.6 0 1 .2 1 .4m20.2.3c-.6.2-1 .9-.7 1.3.3.5.1 1.1-.5 1.5-.5.3-1-.3-1-1.4 0-1.4.6-2.1 1.8-2 1 0 1.2.3.4.6m3.4 4.9c-.3.7-.1 1.6.4 1.9.6.4 1 .2 1-.4 0-1.7 3-4 4.5-3.5.8.4 1.2 1.1.8 1.7s0 .8 1 .4c1-.3 1.7-.2 1.7.3 0 .6-.4 1-.9 1s-1.7.3-2.6.7c-1.4.5-1.6.2-1-1.8.7-2.2.6-2.2-.9-1-.9.8-1.5 2-1.2 2.8.3.7-.1 1.3-1 1.3-1.8 0-8.9 3.3-12.1 5.6-1.3.9-2.3 1.2-2.3.6s.9-1.4 2-1.7 2-1.1 2-1.6c0-.6-.7-.6-1.9.1-1.5.7-2.3.6-3.5-.6-1.6-1.5-2-2.4-1.2-2.4.3 0 1.2.7 2 1.6 1.5 1.4 1.6 1.3 1.6-.7 0-1.8.2-1.9 1.5-.9.8.7 1.5.8 1.5.3s.6-1.7 1.3-2.8c1.3-1.7 1.4-1.7 1.3.5-.1 1.3.6 2.5 1.4 2.7 1 .3 1.1.2.3-.4s-.8-1.4.2-3.3c.8-1.4 1.4-1.9 1.5-1.3 0 .7.5 1.3 1.1 1.3s.8-.7.5-1.6-.2-1.2.5-.9c.6.4.8 1.3.5 2.1M725 448c0 .5-.4 1-1 1-.5 0-1-.5-1-1 0-.6.5-1 1-1 .6 0 1 .4 1 1m71.5 4c.3.6-.1.7-.9.4-1.8-.7-2.1-1.4-.7-1.4.6 0 1.3.4 1.6 1m4.2-.4c-.3.3-1.2.4-1.9.1-.8-.3-.5-.6.6-.6 1.1-.1 1.7.2 1.3.5m-6.4 11.4c6.7 2.1 14.5 7.2 18.9 12.5l2.6 3-8.7-.3c-7-.3-9.7 0-14.6 1.9-8.3 3.1-17.3 12.1-20.4 20.3-4.5 12.2-3.7 24.6 2.4 33.6l3.3 4.9-3.1-.5c-6.7-1.2-15.7-6.4-19.7-11.5-17.4-22.1-7.2-56.2 19.3-64.4 6.1-2 12.6-1.8 20 .5m-72.9 5.5c-.4.8-1 1.2-1.5.9-1.4-.8-1-2.4.6-2.4.9 0 1.2.6.9 1.5m1.1 8.5c.3.5.1 1-.4 1-.6 0-1.1-.5-1.1-1 0-.6.2-1 .4-1 .3 0 .8.4 1.1 1m94 10.5 3 1.9-5.8.8c-18.7 2.4-31.5 16.8-31.8 35.7l-.1 5.6-2.4-5.2c-4.9-10.3-2.3-26.3 5.3-33.2 6.8-6 12.7-8.2 21.3-7.9 5.5.2 8.4.8 10.5 2.3m10.8 18.9c1.8.7 5.7 4 8.6 7.2 5.7 6.4 19.1 23.8 19.1 24.9 0 .3-2 .3-4.4 0-9.2-1.4-21.2 3.6-25.3 10.5-.9 1.7-2 3-2.4 3s-5-5.7-10.2-12.6c-10.8-14.1-12-17.2-9.1-23.6 3.8-8.5 15.1-13 23.7-9.4m-512.3 34c-1.2 9.8-1.3 19.1-.1 23.4 1.2 4.2.2 4-4.7-.8-5.5-5.2-8.7-10.5-10.7-17.5-3.1-10.6.9-22.6 10.9-32.6l5.1-5.1.3 12.3c.2 6.8-.2 16-.8 20.3m541.8 7.3c1.7 2 3 3.9 2.7 4.2s-1.6-.7-2.8-2.2-3.5-3.7-5.2-4.8c-2.8-1.9-2.8-2-.5-1.4 1.4.3 4 2.3 5.8 4.2m15.8 17.3c12.8 6.3 17.9 15.7 17.9 33 0 9.6-.3 11-2.9 16.3-1.6 3.1-4.5 7.5-6.3 9.7-3.5 4.1-14.3 10-18.2 10-2 0-2.1-.1-.6-2.4 1.8-2.8 3.6-.6-17.6-21.3-10.4-10.1-18.3-15.3-23.7-15.3-2.1 0-2.3-.3-1.7-3.3.3-1.7 2-6 3.6-9.4 8.7-18.2 31.5-26.2 49.5-17.3m-157.1 8.5c16.3 2.8 64.9 11.9 73 13.6 3.9.9 5.6 1.9 7.8 4.7 1.5 1.9 2.7 4.1 2.7 4.7 0 1.7-4.6 2.5-8.4 1.4-1.7-.5-7.8-1.5-13.6-2.4-5.8-.8-16.1-2.6-23-4-6.9-1.3-21.9-4.1-33.5-6.1-25.6-4.4-26.5-4.8-26.5-11 0-3.8.7-4.6 4-4 1.4.3 9.3 1.7 17.5 3.1m-53.7 12.2c5.7 3.6 7.9 13.2 4.8 20.6-1.5 3.8-6.6 8.4-10.1 9.3-9.2 2.3-18-10.4-14.6-20.9 3.3-10 12.1-14 19.9-9m-35.7 8.4c7.5 8 0 22.5-9.8 18.8-2.8-1-6.3-6.5-6.3-9.7 0-3.7 3-9.1 5.9-10.7 4.1-2.2 7-1.8 10.2 1.6m103.9 8.8c12.4 2.1 27.8 4.9 34.3 6.2l11.8 2.2-2 2.1c-1.9 1.8-2.5 1.9-8.3.9-3.5-.6-20.8-3.5-38.5-6.4-18.9-3.2-32.3-5.8-32.3-6.4s.6-1.7 1.3-2.4c1.5-1.6 5.1-1.2 33.7 3.8m101.6 1.2c1.9 2.2 1.9 2.2-.3.8-1.3-.8-2.3-1.7-2.3-2.1 0-1.2.6-.9 2.6 1.3m-422 4.4c6.6 6.6 6.8 16.3.4 22.7-3.2 3.3-4.4 3.8-8.2 3.8-3.3 0-5-.6-6.6-2.3-4.5-4.8-5.4-11.6-2.3-18.3 3.7-8.2 11.6-11 16.7-5.9m-35 1c4.1 1.7 6.4 6.3 6.4 12.7-.1 11.8-9.9 19.6-17.4 13.7-6.1-4.8-7.4-13.2-3-20.6 1.5-2.7 3.9-5 5.7-5.8 4-1.8 4.1-1.8 8.3 0m352.1 3c32 5.4 37.1 6.4 37.7 7.3.2.4-3 3.1-7.3 6l-7.8 5.3-16.9-2.6c-32-5-35.2-6-37.8-12.5-2.6-6.4-2.2-8 1.8-8 1.9 0 15.5 2 30.3 4.5m90 0c5.2 2.2 6.8 7.7 3.9 13.4-.9 1.6-10.1 8.9-23.3 18.3-30 21.5-31.3 22.2-36.5 21.5-3.6-.5-5.2-1.5-9.5-6.1-8.5-9.1-8.5-8.7-.1-14.9 27.2-20.1 39.7-29.1 43-30.8 7.7-3.9 15.1-4.4 22.5-1.4m-151.3 18.9c3.2 1.9 9.5 3.3 28.6 6.4 13.5 2.3 26.6 4.3 29.3 4.7 2.6.3 4.7.9 4.7 1.3-.1.4-3.1 2.8-6.8 5.3l-6.8 4.6-4.9-2c-7.3-2.9-19.4-2.9-25.9.1-2.8 1.3-6.4 3.4-8.2 4.7l-3.2 2.4-7.7-4.3c-7.7-4.5-20.5-8.6-26.3-8.6H635v-14.8l8.8-.7c4.8-.3 9.2-.8 9.7-1 3.1-1.1 8.3-.2 11.9 1.9m-34.9 3.9c1.5 9.6 1 10-14.2 11l-9.3.7v-13.7l10.3-1c5.6-.5 10.7-1.1 11.4-1.1.7-.1 1.5 1.7 1.8 4.1m-34.5 8.2c0 2-.6 3.8-1.2 4-.7.3-16.4 2.3-34.8 4.5s-35.7 4.5-38.3 5.1c-5 1.2-16 7.8-18.9 11.5-1.1 1.3-3.4 2.4-6 2.8-5.8.9-14.3 5.9-17.1 10.1-1.2 1.9-3.3 3.6-4.7 3.9s-12.8 1.3-25.3 2.2c-16.9 1.3-23 1.5-23.6.6-.3-.6-3.3-2.3-6.5-3.8-4.6-2.1-8-2.8-15.3-3.2l-9.3-.5v-29.5l4.8-.6c17.2-2 18.1-2 20.3.7 2.5 3.2 7.6 4.7 13.7 4.1 21.7-2.2 69.8-6.8 87.7-8.4 41.3-3.6 67-6 68.5-6.4 4.9-1.2 6-.7 6 2.9m-205.4 11.2c-.2 1.6-.4 8-.5 14.3l-.1 11.5-7.7-.3c-4.3-.1-9.7-.5-12-.8l-4.3-.5v-25.8l6.3-.4c3.4-.2 9-.4 12.4-.5l6.2-.2zm352.5 4.9c2.3 3 6.2 7.3 8.6 9.4l4.4 3.8-7.1 5.1c-3.8 2.8-7.3 5.1-7.8 5.1-.8 0-9.1-9.2-13.6-15.2l-2.7-3.7 6.3-5c3.5-2.8 6.6-5 6.9-5.1.4 0 2.6 2.5 5 5.6m-137.4-2.5c-4.3 2.2-7.5 2.7-52.2 7.4-18.1 2-35 3.8-37.5 4.1-3.4.4-4.1.3-3-.5 3.4-2.5 12.8-4.2 39-7.1 15.1-1.7 32-3.7 37.5-4.5 5.5-.7 12.3-1.3 15-1.3l5-.1zm43.3.1c2.5.6 7.1 2.4 10.3 4 5.2 2.6 5.6 3 4.7 4.9-1.3 2.3-1.6 9.1-.6 10.8 1.2 1.8-5.9 1.3-11.4-.9-12.5-4.9-25.6-4.3-37.8 1.7-11.3 5.6-19.1 13.3-74.9 74.8-9.5 10.5-18.7 20-20.5 21.2-6.5 4.4-12.6 6.3-22.9 7.4-13.5 1.3-19.5 3.1-26.8 8-10.3 6.9-21 22-25.3 35.9-3 9.8-3.3 30.1-.4 39.5 6.6 21.9 22.6 38.6 43.5 45.4 6.4 2.1 6.5 2.1 185.1 2.1 196.9 0 183.8.4 196.3-6.3 11.1-5.8 22.5-18.7 27-30.3 2.1-5.5 4.7-19.5 4.7-25.3-.1-15.2-6.5-31.6-16.4-42.7-10.9-12.1-22.2-17.4-42.1-19.9-7.2-.9-25.1-3.6-40-6.1-35.8-6-57.2-10.4-50.3-10.4 2 0 6.8-4.8 6.8-6.8 0-1.5-1.1-1.1-1.3.5-.2 1.5-3.2 4.2-6.1 5.3-4.3 1.6-4.3.5.1-1.6 2.5-1.3 3.9-2.7 4.1-4.3.2-1.4 0-2.1-.6-1.7s-1.3.2-1.6-.3c-.7-1 .4-.9 16.2 1.6 5.6.9 10.2 1.9 10.2 2.4 0 .4.8.5 1.8.2 3.6-.9 77.5 11.1 84.6 13.8 3 1.1 8.8 4.2 12.8 6.8 38.3 25 44.8 82.6 13.3 117-4.9 5.4-16.7 13.3-23.8 15.9-11.7 4.4-10.6 4.3-200.7 4l-181.5-.3-5.5-2.1c-19.3-7.4-31.8-18.7-41.5-37.4-7.2-14-9-21.9-8.9-38.5.1-11.7.5-15.3 2.6-22.1 6.2-20.6 21.6-40.4 37.3-48 6.3-3 9.4-3.8 17.8-4.6 17.1-1.7 19.9-2.9 28.1-11.1 3.9-4 11.6-12.3 17.1-18.6s13.2-14.8 17-19c3.9-4.2 12.3-13.8 18.7-21.2 12.9-15 29-30.9 36.4-35.9 11.7-8.1 30-11.3 44.4-7.8m56.1 2.2c6.3 2.7 10.9 7.1 24.5 23.6 18.8 22.9 22.4 30.8 19 42.4-2.1 7.2-7.2 12.9-17.5 19.7l-7.6 5-.6-6.3c-.7-8-2.4-13.4-5.7-17.8-2.7-3.6-17.4-21-34.5-41-5.4-6.3-10.3-12.3-10.8-13.2-.8-1.4.2-2.6 4.8-6.3 3.2-2.5 7.6-5.1 9.8-5.9 5.3-1.9 14.4-2 18.6-.2m-121.8 16.5-6.8 6.8-11 .7c-6 .4-17.1 1.3-24.5 2.1-24.8 2.6-56 5.5-59.2 5.5h-3.2l4.8-4.9c6.9-7 9.1-7.5 52.6-11.6 15.1-1.4 32.5-3.2 38.5-3.9 17.2-2.1 16.5-2.6 8.8 5.3m-213.8 11.7c10.1.6 11.1.8 13.4 3.2 1.9 2.1 2.1 2.9 1.2 4.4-1.1 1.8-1 1.8 1.1.8 2.2-1.1 2.2-1.1.3.5-1.8 1.4-5.6 1.6-33 1.3-30.2-.3-31.2-.2-37.7 2-15.5 5.4-20.3 10.5-57.5 60.2-26 34.9-28.1 37.3-35.8 41.1-6.3 3.1-6.6 3.1-16.2 2.5-25.4-1.7-27.9-1.8-33.3-.6-26.6 5.9-43.5 33.9-37.6 62 4.7 22.2 21.7 40.1 43.2 45.4 4.7 1.2 18.2 1.6 68.4 2 34.4.3 63.6.5 65 .6 2.3 0 2.4.1.7 1.4-1 .8-1.8 1.8-1.8 2.3.1.4-.5 1.5-1.3 2.5-1.4 1.6-1.1 2.8.6 2.8.5 0 .6-.5.3-1-.3-.6-.1-1 .4-1 .6 0 1.1.5 1.1 1.1 0 .7 1 .9 2.5.5s2.5-.2 2.5.4c0 .7-1.7 1-4.7.7-2.7-.2-5.8-.1-7 .4-1.4.5-2.3.5-2.3-.1s.7-1 1.5-1c1.5 0 2-1.2.9-2.3-.4-.3-1.5.4-2.5 1.7-1.4 1.8-2.8 2.3-5.6 2.2-2.1 0-4.4-.5-5-.9-.8-.5-1.3-.4-1.3.2 0 1.5-97.6 1.5-107.1 0-15.5-2.4-28.5-8.8-39.3-19.5-15.3-15-23.1-36.2-20.6-56.1 3.3-26.2 18.6-46 41.2-53.4 8-2.6 20.1-3.1 38.8-1.5 14.5 1.3 15.8.4 33.7-22.9 5.5-7.2 13.4-17.7 17.6-23.5 22.9-31.4 32.7-42.9 43-50.1 13.6-9.5 24.8-10.8 72.2-8.3m199.9 1.9c-.9 1.4-1.8 2.5-2 2.5s.2-1.1.8-2.5 1.5-2.5 2-2.5.1 1.1-.8 2.5m240.3 1.1c-1.3 7.8-5.8 11-13.9 9.9l-4.8-.7 8.7-6.4c4.8-3.5 9.1-6.4 9.6-6.4.6 0 .7 1.6.4 3.6m-161.8-1.9c0 .5-3.6 3.9-8 7.6-6 5.2-8.4 6.7-9.9 6.2-1.1-.4-2-1.2-2-1.8 0-1.3 5.3-5.9 11.5-10.1 3.5-2.4 8.6-3.5 8.4-1.9M293 691.1c-1.4 1.1-5.1 4.3-8.3 7.1-3.2 2.7-6 4.8-6.2 4.6-.8-.7 10-11.7 12.5-12.7 4-1.6 4.7-1.2 2 1m375.2.8c3.2 1.2 9.1 7.2 15.3 15.6 8.2 11.1 8.3 10.8-3 20.2-17.3 14.4-23.9 19.3-26 19.3-3.5 0-20.4-18.6-24.3-26.7-1.9-4-1.8-4.2 12.8-16.1 16.7-13.7 18.9-14.7 25.2-12.3M621.1 707c2.8 1.5 2.4 2.7-1.6 4.6-1.9.9-4.4 3.2-5.6 5.1-1.9 3-2.1 4.4-1.6 9.9l.6 6.3-10.4 9.1c-5.7 5-11.1 10.2-11.9 11.5-4.3 6.5-12.8-1.4-11.1-10.3.8-4.2 4.8-8.6 21-23.2 16.2-14.5 16.9-14.9 20.6-13M274 710.7c0 .5-1.6 2.9-3.4 5.4l-3.4 4.6-12.3 1.7c-10.9 1.4-34.5 4.2-52.2 6l-5.8.6 4.2-5c2.3-2.8 5.2-5.3 6.3-5.5 1.6-.4 60-7.9 65.4-8.4.6 0 1.2.2 1.2.6m273.8 5.2c-6.3 7.1-.2 6-57.3 10.6-53 4.3-49.3 4-49.9 3.4-.3-.2 1.6-2.8 4.2-5.6l4.7-5.2 27-2.6c51.8-4.9 67-6.3 71.8-6.4l4.8-.1zm246.7 3.2c13.5 1.8 33.7 4.9 39.8 6.1l5.7 1.1v4.8c0 3.3-.4 4.9-1.2 4.9-1.9 0-30.9-3.9-34.1-4.6-1.5-.3-2.5-.9-2.3-1.2.2-.4-1.6-.5-4.1-.3-2.6.2-4.3-.1-4-.6s-.9-.9-2.6-.9c-5.2 0-6.6-1-7.8-5.8-.6-2.5-1.6-4.3-2.1-4-.5.4-.5 1 .1 1.8.7.8.6 1.7-.1 2.6-.8 1.2-.9 1.2-.4-.3s.2-1.7-1.7-1.3c-1.2.3-1.6.3-.9 0 .6-.3 1.2-1.4 1.2-2.5 0-1.7.5-1.9 3.3-1.5 1.7.3 6.8 1 11.2 1.7m-442 3c2.4.6 5.4 2.2 6.7 3.6l2.3 2.5-2.4-.7c-1.7-.5-2.1-.4-1.6.4.8 1.4-1.3 4.3-2.6 3.5-.5-.3-.9 0-.9.6 0 .7-.7.9-1.6.6-.8-.3-1.3-.2-1 .2.2.4-.7 2.1-2.1 3.7-1.4 1.7-2.2 2.4-1.9 1.7.4-.6.2-1.2-.3-1.2-.6 0-1.1.7-1.1 1.6 0 .8-.5 1.2-1 .9-.6-.4-.8-1-.5-1.5s.1-1.2-.5-1.5c-.6-.4-1-.3-.9.2.1.4-.2 1.9-.6 3.1-.6 1.8-1 2-1.6 1-.6-.8-.9-.9-.9-.1 0 .6-.9.9-2.2.6l-2.3-.5 2.3 1.6c1.2 1 2.7 1.4 3.2 1.1.6-.3 1 0 1 .8 0 1-.7 1.3-2 1-1.1-.3-2-.9-2-1.4 0-1.8-1.8-.9-3.5 1.7-1.1 1.7-1.2 2.3-.4 1.8 1.3-.8 4.9-1.4 4.9-.8 0 .1-1.3.9-3 1.7-2.9 1.5-3.1 1.4-5.1-1.1-1.7-2.2-2-3.6-1.6-8 1-10 7.8-16.8 18-18.1.5-.1 2.8.4 5.2 1m78.8.9c2.6.7 4.7 1.6 4.7 1.9 0 .4-6.1 7.4-13.7 15.4-12.8 13.8-13.8 14.7-17.3 14.7-4.4 0-6 1.5-9.5 9.2-1.4 3.1-3.8 6.4-5.2 7.4-1.5.9-3.9 3.1-5.4 4.7l-2.8 3-4.5-3.4c-5.5-4.1-6-6.1-4.6-17 1.2-9.6 4-16.1 10.1-23.2 9-10.4 19.8-15 34.4-14.3 5 .2 11.1.9 13.8 1.6m-39.7 2c-10.4 6.7-17.3 16.2-21.1 29.3-1.6 5.7-1.7 5.8-3.6 4.1-2.1-1.9-2.4-1.3-.8 1.7.5 1.1 1.5 1.6 2.1 1.3.7-.5.8-.2.4.5-.6.9-1.2.9-2.5-.3-2.5-2.3-3.7-2-1.6.4 1 1.1 2.5 2 3.4 2.1 1 0 1.2.2.3.6-.6.2-1 1-.6 1.6.3.7-.1.4-.9-.5-.8-1-1.7-1.5-2-1.1-.4.3-.7.1-.7-.6s-.5-.9-1-.6c-1.1.7-.7-3.5.4-5.4.3-.5-1.2-2-3.4-3.5-3.7-2.4-3.9-2.5-4.5-.6-.3 1.1-.1 2.8.5 3.7.8 1.5.9 1.3.4-1.1l-.7-2.8 2.7 1.7c3.1 2.1 3.4 5.5.6 7.3-2.3 1.4-2.6.5-.6-1.7 1.1-1.2 1.2-2.1.5-3.1-.8-1.2-.9-1.1-.7.5.2 1.2-.4 2.1-1.4 2.3-1.1.2-1.8-.3-1.8-1.1 0-.9-.5-1.7-1.2-1.9-1.8-.6 2.7-12.2 6.9-18 7.7-10.7 20.2-17.5 32.2-17.7l3.5-.1zM262 726.5c-.7.8-1.7 1.5-2.3 1.5-.5 0-.2-.9.8-2 2.1-2.3 3.5-1.9 1.5.5m441.1 7.2c4.3 3.9 10.3 14.6 11.4 20.5 1.3 6.7-1 11.7-8.6 19-9.9 9.5-15.3 12.8-20.5 12.8-5.3 0-8.2-2.3-16.3-13.1-6.5-8.6-8.1-13.2-6.1-17.9 1.5-3.6 9.4-11.1 20.3-19.2 10-7.3 13.5-7.7 19.8-2.1m-70 12c9.2 10.8 12.3 16 11.4 18.6-.6 1.4-17.9 16-22.8 19.2-3.5 2.2-9.4 1.6-13.7-1.5-4.9-3.5-9.8-10.7-10.5-15.4-1.2-7.5 1.4-11.6 13.9-22.1 6.1-5.2 11.4-9.4 11.8-9.5.4 0 4.8 4.8 9.9 10.7m-288.7-5.1c.3.8.2 1.2-.4.9s-1-1-1-1.6c0-1.4.7-1.1 1.4.7m472.4 7.3c11.2 1.7 21 3.1 21.8 3.1 1 0 1.4 1.4 1.4 5.6 0 4.8-.2 5.5-1.7 5-1.8-.5-16.3-2.9-25.3-4.1-6.9-.9-8.5-1.5-6.9-2.6.9-.6 1-.9.2-.9-.6 0-1.5.4-1.8 1-.3.5-1.1 1-1.6 1-.6 0-.8-.4-.5-.9.3-.4-.7-.6-2.2-.3-2.6.4-2.7.4-.7-1.2 2-1.7 2-1.7-.2-1.1-3.1.9-4-1.5-1.3-3.7 1.2-1 1.7-1.8 1-1.8s-1.9.8-2.6 1.7c-1.3 1.7-1.3 1.7-1.4-.1 0-1.8-1.4-1.4-1.6.5-.1.5-.2 1.3-.3 1.9 0 .5-.6 1-1.2 1s-.8-.9-.4-2.1c.6-1.9.5-2-1.5-.9-2.1 1.1-2.1 1.3-.5 3 1.7 1.8 1.6 1.9-.5 1.5-1.3-.2-2.5-.7-2.8-.9-.6-.7 2.6-5.6 3.6-5.5.4.1 1.4.1 2.2-.1 1.1-.1.9-.4-.5-1-1.3-.5-2.5-.3-3.5.5-1.2 1.1-1.9 1.1-4-.1l-2.5-1.5 2.8.6c1.7.3 2.7.1 2.7-.6 0-1.4 1.2-1.3 29.8 3m-571.8.6c0 .3-1.8 3-3.9 5.9-3.6 4.8-4.3 5.3-8.2 5.4-2.4.1-5 .4-5.9.7-1.2.3-30.7 3.5-56.4 6l-4.8.4 3.5-4.2c1.9-2.3 4.5-4.7 5.8-5.4 1.3-.6 15.2-2.6 30.8-4.3 15.6-1.8 30.5-3.6 33-4s4.9-.8 5.4-.9c.4 0 .7.1.7.4m540.3.1c.8.8-.3 3.4-1.4 3.4-.5 0-.9-.9-.9-2 0-1.9 1.1-2.6 2.3-1.4M514 752.8c0 1.1-6 6.7-8.7 8.1-1.2.6-6.6 1.5-12 2.1-13.8 1.3-55.6 4.8-75.5 6.3-18.8 1.4-18.5 1.5-14.7-5.3 2.4-4.3 1.8-4.1 22.4-6.1 15.5-1.4 75.2-5.6 82.8-5.8 3.1 0 5.7.3 5.7.7m-160.3 7.7c0 .8-.4 1.5-.9 1.5-.4 0-.8-.7-.8-1.5s.4-1.5.8-1.5c.5 0 .9.7.9 1.5m396.5 1.4c-1.1.6-1 1.1.3 2.5 1 .9 1.5 1.9 1.3 2.1-.3.3-1.4-.6-2.6-1.9-1.4-1.7-1.7-2.6-.9-3 2-.8 3.3-.6 1.9.3m-403.7 7.7c8.3 2.1 19.3 7.6 24.5 12.2l4.4 3.8-7.3 7.8c-3.9 4.3-8.3 10.1-9.7 12.9-3.2 6.2-3.3 6.4-4.2 5.1-.4-.5-3.6-2.3-7.1-3.8-5.6-2.5-7.3-2.8-13.6-2.4-15.1 1-26.3 11.8-28.1 27.1-.9 7.9 1 14.5 6.7 22.8 4.3 6.2 4.9 7.6 4.3 10.5-.4 2.4-1.2 3.4-2.5 3.4-1.1 0-1.9-.6-1.9-1.4 0-.7-.8-2-1.7-2.7-1.6-1.3-1.7-1.2-.4.4.8.9 1.1 2.1.7 2.4-.4.4-1.1.1-1.6-.7-.6-.9-1-1-1-.3 0 1.9 5.5 4.2 7.5 3 1.3-.7 1.6-.6 1.3.4-.2.7-1.5 1.6-2.9 2-2.4.7-2.4.7.4.8 1.5.1 2.7-.4 2.7-.9 0-.6 1.2-1.6 2.8-2.3 1.5-.6 3.2-1.9 3.9-2.7 1.1-1.3 1.2-1.3 1.3.2 0 1-.5 1.8-1.1 1.8-.5 0-.7.4-.4 1s-.1.7-.9.4c-.9-.3-1.6-.1-1.6.5s-.7 1.1-1.6 1.1c-.8 0-1.3.4-.9.9.3.6 1.7.4 3.2-.4 2.9-1.5 3.9-1.3 2.8.4-.3.6-1 .9-1.5.6s-1.2-.1-1.5.5c-.4.6-1.6.8-2.8.4-2.1-.6-2.1-.5-.4 1.2 1.5 1.7 1.9 1.7 2.7.4.8-1.2 1.3-1.3 3-.2 1.2.7 2 .8 2 .2 0-.5-.6-1-1.2-1-.9 0-.8-.3.2-1 .9-.6 1.7-.5 2.1.2s1.1.3 1.8-1.1c.7-1.1 1.9-2.1 2.7-2.1 1.4 0 1.4.2 0 1.6-.9.8-1.6 2-1.6 2.5 0 1.6 2.8 4 3.4 3 .3-.5-.1-1.1-.9-1.5-2.2-.8-1.8-2.4.7-3.2 1.3-.4 2.8-1.4 3.4-2.2 1.2-1.7 6.4-2.6 6.4-1.1 0 .6-.4.8-.9.4-.5-.3-1.3 0-1.7.6-.4.8-.9.7-1.5-.2-.6-1-1.3-.3-2.4 2.5-1 2.3-1.3 4.1-.7 4.5 1.1.7-.1 4.6-1.8 5.6-.7.4-1.7.2-2.3-.4-.8-.8-.7-1.1.5-1.1.9 0 1.9-.8 2.3-1.8.5-1.4.4-1.5-.6-.5-1.7 1.7-2.9 1.6-2.9-.3 0-.8-.5-1.2-1-.9-.8.5-.8 1.1 0 2s.5 1.4-1.1 1.8c-1.3.4-1.9.1-1.6-.6.2-.7.8-2.3 1.2-3.5l.7-2.4-2.9 1.8c-1.5 1-2.9 1.9-3.1 2-.6.3 5.7 6.4 6.6 6.4.6 0 1.2-.5 1.4-1.2.3-.9.6-.9 1.1 0 .5.6-.4 1.7-2 2.7-2.7 1.5-2.7 1.5-.3.9 2.5-.7 2.5-.7.6 1.5-1.8 2-4.3 3-3.2 1.3.2-.4-.6-.9-2-1-1.3-.1-2.4 0-2.4.2 0 1.4 1.4 3.6 2.2 3.6.6 0 .5-.6-.2-1.5-1.6-2-.2-1.8 3.5.5 1.7.9 2.9 2.3 2.8 2.9-.2.6.3 1.1 1 1.1.6 0 .4.5-.5 1.1-1 .5-1.8 1.4-1.8 1.9 0 .6.9.2 1.9-.7 1.1-.9 1.7-2.1 1.4-2.6-.4-.6 0-.8.9-.5.9.4 1.5 0 1.5-.8 0-.9-.7-1.2-1.7-.9-1.3.4-1.7-.1-1.7-2.3 0-2.1.5-2.9 1.6-2.7.9.1 1 0 .4-.2-2-.7-1.1-5.3.9-5.3.6 0 .5.6-.2 1.5-1 1.2-.9 1.6.5 2.1.9.4 2.1.2 2.7-.4s1.7-.8 2.4-.5c2.2.8 1.6-.6-1.2-3.2-2.7-2.5-2.7-5.5 0-5.5 1 0 1.3-.6 1-1.5-.4-.8-.1-1.5.5-1.5 1 0 1.6 3.3 1.2 7.4-.1 1.6.1 1.7 1.4.6.9-.7 1.5-.8 1.5-.2s-.6 1.2-1.2 1.5c-.7.2-.9.8-.5 1.3s1.2.2 1.6-.5c.6-.9 1.1-1 1.5-.2 1 1.6 2.6 1.4 2.6-.4 0-.8.5-1.5 1-1.5 1.4 0 1.3.6-.7 4.3-1.6 3-1.8 3-2.1.9-.2-1.2-.8-2.2-1.3-2.2-1 0-.7 2.9.5 4.9.6.9.5 1.2-.5.9-.8-.3-1.5-1.1-1.5-1.9-.3-3.1-.5-3.3-1.5-1.6-.5.9-.8 2.1-.5 2.6.3.4-.6 1.4-1.9 2.1-1.4.7-2.7 2.1-3 3.1-.3.9-1.2 2-2 2.3s-1.5 1-1.5 1.6c0 1.1 1.8-.1 4.3-2.8 3.9-4.2 5.1-5 6.6-4.4.9.3 1.8.9 2.1 1.3 1 1.4 6 2.2 6 .9 0-.7-.7-1-1.7-.5-1.3.4-1.5.3-.7-.5.6-.6 1.8-.8 2.7-.4 3.3 1.2 1.9 2.3-5.7 4.8-1 .4-1.7.9-1.4 1.1.3.3 2.4-.2 4.8-1 5.5-1.9 6.5-1.1 1.4 1.2-3 1.4-6.6 1.8-15.9 1.7-10.9 0-12.6-.3-18.4-2.8-15.1-6.5-24.9-14.9-33.3-28.6-9.9-16-12.5-33.2-8.2-53.5 2.5-12.1 9.4-24.2 18.8-32.8 2.7-2.6 3.3-3.4 1.7-2.6-3.9 1.9-11.8 9.7-15.4 15.3-5.1 7.6-8.4 16.9-10.3 28.9-1.4 8.7-2 10.4-3.1 9.5-.7-.6-1.7-.7-2.1-.3s-.2.9.3 1.2c2.4.9 3.9 2.3 3.2 3-.5.4-1.2.1-1.7-.7-.6-.8-1-1.1-1-.5 0 .5-.5.2-1.1-.8-.5-.9-.7-2.2-.4-2.7.3-.6.1-1-.4-1-.6 0-1.1-.5-1.1-1.1 0-.8.4-.8 1.4.1 1.2.9 1.5.8 1.3-.8 0-1.2-.6-1.8-1.4-1.5-.7.3-1.6-.3-1.9-1.2-.6-1.3-.9-1.4-1.6-.3-.7.9-.8.5-.4-1.2.4-2.3.4-2.3-.8-.7-1.1 1.5-1.5 1.5-2.5.3-.9-1.1-.9-1.5.1-1.8.7-.3.3-.7-.9-1-2.2-.6-2.2-.5-.8 2.3 1.2 2.3 1.2 2.7.2 2.3-1.7-.6-1.9 2.7-.3 3.9.8.6.7 1-.1 1.4-2.2.8-1.4 2 1 1.6 2.5-.4 5.5 1.2 4.4 2.4-.5.4-1.1.3-1.5-.2-1.1-1.6-3.3-1.6-3-.1.2.8-.6 2.2-1.7 3l-2 1.6 2-.6c1.6-.5 1.7-.4.5.5-2.9 2.1-3.2 1.1-2.7-7.2 1.2-18.4 4.3-27.1 14.1-40.5 15.4-20.9 50.4-31.8 79.1-24.6m119.5-.2c0 .2-1.5 1.3-3.2 2.3-1.8 1.1-5.9 4.1-9.1 6.7-6.3 5.1-6.3 3.4 0-2.5 4.9-4.7 12.3-8.6 12.3-6.5m189.7 7.8c5.8 6.2 17.3 21.5 17.3 23 0 3-18.3 17.3-23.4 18.2-10.8 2-22.6-8.4-22.6-20 0-7.9 3.2-12 19.4-24.2 1.6-1.2 3.2-2.2 3.6-2.2s2.9 2.4 5.7 5.2m-438.8 5.4c-2.4 2.4-7.7 3.1-14.9 2l-6.5-1 10.4-.7c5.6-.4 10.6-1 10.9-1.3s.8-.6 1.1-.6-.2.7-1 1.6m369 13.2c.1 5.8.4 6.7 3.4 9.6 1.7 1.8 4.1 3.7 5.1 4.3 1.7.9 1.8 1.3.5 4.2-1 2.3-1.8 2.9-3.3 2.5-1.3-.4-1.6-.2-1.1.6.5.9.2 1-1.3.6-2.3-.8-7.2 1.2-7.2 2.9 0 .6-1.6 1.7-3.5 2.4s-3.5 1.7-3.5 2.2c0 2.3-1.7.5-3.4-3.9-1-2.6-3.4-7.2-5.2-10.3-4-6.8-4.1-7.8-1-12.8 3.4-5.3 9.2-9.9 14.6-11.5 4.3-1.3 4.5-1.2 5.2.8.3 1.1.6 5 .7 8.4m-60.8-7.2c18.3 5.4 33.4 20.4 39.2 38.8 2.9 9.5 3.1 27.3.3 35.6-3.2 9.5-7.3 16.6-13.3 23.1-10.9 11.8-21.6 16.4-36.3 15.7-8-.4-9.7-.8-17.6-4.7-19.8-9.8-31-27.5-33.9-53.4-.6-5.7-.6-5.7-4-5.7-3.3 0-3.4-.1-2.8-3.3 1.7-9.5 7.5-22.3 13.2-29.4 5.7-6.9 17.2-14 27.2-16.7 7.4-2 21.2-2 28 0m184.3 8c-7.9 4.7-12.6 9.5-17.5 17.6-5.3 8.7-8.9 19.2-9.6 27.9-.3 3.8-.9 6.9-1.3 6.9-1.9 0-3.3-6.4-2.7-12.3 1.7-17.9 14.3-35.8 29.4-41.7 7.5-3 8.2-2.3 1.7 1.6m35.9-1.6c11.4 3.5 23.2 14.1 29.4 26.3 3.9 7.8 5.3 13.5 5.9 23.7 1.1 17.8-3.9 32.2-15 43.5-7.3 7.5-15.8 12-25.3 13.6-6.1 1-7.9.9-15.3-1-10.3-2.6-17.6-6.8-24.6-14.4-15.5-16.7-18.9-44.8-8.1-66.4 6.7-13.2 15.4-21.8 26-25.4 7.2-2.5 18.7-2.5 27 .1m-310.8 9.5c-1.9 3.3-3.9 6.3-4.4 6.8-2 2-68.1 4.8-68.1 2.9 0-.4 1.3-3.2 2.8-6.2 2.7-5.5 2.7-5.5 8.4-6.3 8.4-1.2 64.3-4.3 64.6-3.6.1.3-1.3 3.2-3.3 6.4m401.7 2.9c11.5 2.7 22.9 12 28.4 23.2 1.4 2.8 3.2 8.9 4.1 13.4 2.1 10.5.8 21.2-3.7 30.7-3.7 8.1-12.4 16.9-20.5 20.9-5.1 2.5-7.2 2.9-14 2.9-6.9 0-8.9-.5-14.8-3.2-8-3.8-16.8-12.2-21-20-5.3-10-7-24.6-4.3-37.4 1.8-8.6 4.6-14 10.4-20.1 5.1-5.5 8.1-7.3 16.2-9.9 6.7-2.2 11.7-2.3 19.2-.5m-495.8 3.7c2.4.6 6.1 3.1 9.3 6.2 4.9 4.6 5.4 5.4 4.8 8.2-1.1 5-1.7 10.5-1.8 19.5l-.2 8.4-4.2 3c-8.2 5.7-20.8 4.5-29.1-2.8-13.7-12-9.2-36.8 7.7-42 5.7-1.8 8.5-1.9 13.5-.5m-144.3 3.1c9.8 4.6 18 15.4 21.4 28.3 2.9 11.2 1.3 22.4-4.7 33.7-3.8 7.2-10.2 13.1-18.6 17-5.7 2.7-7 3-15 2.6-10-.4-15.2-2.4-22.5-8.9-10.5-9.2-15.2-21-14.5-36.7.5-11.7 3.1-18.4 10.5-26.3 9.3-10 16.7-13.1 29.4-12.6 6.5.3 10 1 14 2.9m42.6 1.8c1.7 1 3.7 2.9 4.4 4.2 1.1 2 1 2.1-.3 1.1-1.9-1.7-3.1-.4-1.6 1.6.7.9.3.8-.8-.3-1.3-1.3-1.5-2-.6-2.3 1.3-.5.7-2.3-.9-2.3-.6 0-.8.3-.6.8.3.4-.4 2.3-1.4 4.2-1.2 2.1-1.8 2.7-1.7 1.5.2-1.1.7-2.3 1.3-2.7.5-.4.6-1 .2-1.4-.9-.9-3.7 2.7-3.1 3.8.3.5.1.8-.5.8-1.5 0-2.3-1.8-.9-2.2.8-.3.8-.9 0-2.4-1.1-1.8-1.1-1.8-1.2.5 0 1.7-.4 2.2-1.6 1.7s-1.5-.2-1 1c.4 1.1.2 1.5-.7 1.1-1-.4-1.3.1-.9 1.8.3 1.6.9 2.1 2.3 1.8 1-.3 1.6-.9 1.3-1.4s-1.1-.6-1.7-.2c-.7.4-.6-.1.2-1.1 1.4-1.6 1.5-1.6 2.7.6.8 1.3 1.3 1.7 1.4 1 0-.7.5-1 1.1-.6.8.4.7.9-.2 1.5-.7.4-1.7.5-2.1.3-.4-.3-.8 0-.8.7s-.3.9-.7.6c-.7-.8-3.3 1.1-3.3 2.4 0 .5.6.6 1.4.3s1.7 0 2.2.7c.4.8.3 1-.5.5-.6-.4-2-.2-2.9.5s-1.4.9-1 .5c.4-.5 0-1.5-1-2.2-1.6-1.3-1.6-1.3.1-1.4.9 0 1.7-.5 1.7-1.1s-.6-.9-1.4-.6-1.7.1-2-.6-.3.4 0 2.3c.4 3.3.3 3.4-1.1 1.6-1.9-2.6-1.9-6.6.1-11.6 2.7-6.7 9.8-8.9 16.1-5m-113.4 6.5-2.7 5.5h-5.1c-2.7 0-8.1.3-11.8.7l-6.9.6 2.6-5.1c3.1-6.2 3-6.2 22.3-7l4.3-.2zm477.6-.2c-.5 2-1.2 3.7-1.5 3.7-.6 0 .5-5.9 1.3-7.3 1.1-1.8 1.2.1.2 3.6m-12.4-2.3c.3.5.1 1-.4 1-.6 0-1.1-.5-1.1-1 0-.6.2-1 .4-1 .3 0 .8.4 1.1 1m-1.1 4.4c-.3.9-1 1.6-1.5 1.6s-.4-.9.3-2c1.4-2.2 2.1-2 1.2.4M586 826c0 1-.3 2.1-.7 2.3-.5.3-.8-.8-.8-2.3s.3-2.6.8-2.3c.4.2.7 1.3.7 2.3m18.7-.8c-.3.8-.6.5-.6-.6-.1-1.1.2-1.7.5-1.3.3.3.4 1.2.1 1.9m-26.4 1.3c-.3.8 0 1.5.7 1.5.6 0 .9.4.6.9s-1.4.7-2.5.4c-1.5-.4-1.7-.8-.7-2.8 1.1-2.5 2.9-2.5 1.9 0m4.8.3c-.6.2-.9.8-.6 1.2.3.5.1 1.1-.4 1.4s-1.1-.3-1.4-1.4c-.3-1.3-.1-1.8.6-1.3q1.05.6.3-1.2c-.6-1.6-.4-1.6 1-.4 1 .8 1.2 1.5.5 1.7m-342.8-.3c-.3.9-.8 1.4-1 1.1-.3-.3-.2-.9.2-1.5.9-1.6 1.5-1.3.8.4m365.9 1.8c-.6.7-1 2.3-.7 3.5.5 2.6-1.2 3.9-2.8 2.2-.9-1-.9-1.4.1-1.7 1.4-.5 1.7-4.3.2-4.3-.5 0-.6.7-.3 1.7.4 1.1.3 1.4-.5.9-.7-.4-1.2-1.4-1.2-2.3 0-1.1.6-1.4 2.5-.9 1.6.4 2.5.2 2.5-.5s.3-.9.6-.6c.4.4.2 1.3-.4 2m7.3-.3c.3.5.1 1-.4 1-.6 0-1.1-.5-1.1-1 0-.6.2-1 .4-1 .3 0 .8.4 1.1 1m-354 2c-.3.5-1.4 1-2.3.9-1.4 0-1.3-.2.3-.9 2.7-1.1 2.7-1.1 2 0m4 1c-.3.5-1 1-1.6 1-.5 0-.9-.5-.9-1 0-.6.7-1 1.6-1 .8 0 1.2.4.9 1m315.5 1c-.8.5-1.9 1-2.5 1-.5 0-.3-.5.5-1s2-1 2.5-1c.6 0 .3.5-.5 1m30 0c0 .5-.5 1-1.1 1-.5 0-.7-.5-.4-1 .3-.6.8-1 1.1-1 .2 0 .4.4.4 1m-346.5 1.3c1.2 1 1.5 1.6.6 2.1-.6.4-1.4.1-1.7-.8s-1.2-1.2-2.1-.9c-1.1.4-1.4.2-.9-.5.9-1.5 1.8-1.5 4.1.1m319.5.1c0 .3-.4.8-1 1.1-.5.3-1 .1-1-.4 0-.6.5-1.1 1-1.1.6 0 1 .2 1 .4m25 2.6c-.8.5-1.9 1-2.5 1-.5 0-.3-.5.5-1s2-1 2.5-1c.6 0 .3.5-.5 1m3.5.9c-.3.6-1.4 1-2.3 1-1.5-.1-1.5-.2.1-.6.9-.2 1.7-.9 1.7-1.5s.3-.9.6-.5c.3.3.3 1-.1 1.6M270 841.2c0 .5-.4.8-1 .8-.5 0-1 .7-1 1.6 0 .8-.5 1.2-1 .9-.8-.5-.7-1.1.1-2.1.9-1.1.6-1.6-1.5-2.5-1.4-.7-2.6-1.5-2.6-1.9 0-1 6.9 2.3 7 3.2m342-2.2c0 .5-.5 1-1.1 1-.5 0-.7-.5-.4-1 .3-.6.8-1 1.1-1 .2 0 .4.4.4 1m-352.5 1c-.7 1.2 1.3 4.2 2.4 3.6.3-.2 1.4.1 2.2.8 1.5 1 1.4 1.3-.9 2.4-2 .9-2.3.9-1.4 0 1.5-1.5 1.6-3.2.1-2.3-.5.4-1.9-.3-2.9-1.5-1.9-2.2-1.9-4 .1-4 .6 0 .7.5.4 1m4.6 1.7c1.2 1.6 1.2 1.7-.2.6-.9-.7-1.9-1-2.2-.6-.4.3-.7.1-.7-.5 0-1.7 1.6-1.5 3.1.5m-5.1 3.5c0 .7-.5.6-1.3-.1-.8-.6-1.8-.7-2.2-.3-.5.4-.5.2-.1-.5.8-1.4 3.6-.6 3.6.9m395.5 4.2c10.9 5 16.7 13.6 16.8 24.9 0 9.3-1.7 14.1-7.1 19.7-5.2 5.4-11 7.6-17.5 6.7-12.6-1.7-20.9-18.3-16.5-32.9 1.5-5 7.6-12 13-14.8 4.3-2.2 4.3-2.2.9-1.6-4.9.9-12.1 6.5-15.6 12.1-2.8 4.5-3 5.6-3 14.1 0 10-.5 10-3.5.1-1.1-3.6-3.1-7.5-4.4-8.8-2.7-2.6-2.3-5.3 1.4-11.5 6.5-10.4 22.4-14.1 35.5-8m-402.9 5.1c5.9 1.7 12.7 7.3 15.4 12.5 8.1 15.9-1.7 34.6-18 34.3-17.3-.3-25.1-23.4-12.6-37.1 2.6-2.9 6.8-5.2 9.6-5.2 1.1 0 2-.5 2-1.1 0-1.7-5.9-.1-11 3-9.4 5.6-13.4 19.8-8.4 29.8 1.2 2.4 1.8 4.3 1.3 4.3-1.7 0-5.9-10.9-6.9-17.7-.8-6.3-.7-7.7.9-11.5 2.1-4.7 7.2-10.1 11.1-11.7 3.7-1.5 11-1.3 16.6.4m342.3.1c16 4.7 21.7 28 9.9 40.2-8.1 8.3-19.5 4.6-23.6-7.7-3.6-10.4 1-24 9.1-27.5 2.1-1 2.6-1.5 1.4-1.5-4.8-.2-12.1 6.4-14.3 13.2-2 5.9-1.6 14.7.9 19.6 1.7 3.3 1.7 3.4-.2 1.7-2.6-2.3-3.8-5.7-5.5-14.5-1.4-7.8-1-11.2 1.9-17.5 1.3-2.7 3-4.4 5.9-5.7 5-2.3 7.7-2.3 14.5-.3M321.1 866c.5 0 .9.5.9 1.1 0 .8-.4.8-1.4 0-1.1-.9-1.5-.8-2 .5-.4.9-.9 1.5-1.2 1.2-.2-.3.1-1.8.8-3.4 1-2.1 1.4-2.3 1.6-1.1.2.9.8 1.7 1.3 1.7m6.2 3.7c-.6 1.6-.4 1.6 1.5-.1 1.2-1.1 2.2-1.5 2.2-1 0 1.6-4.1 3.7-5.2 2.6s-.3-3.2 1.2-3.2c.5 0 .7.8.3 1.7m12 5.3c-.3 1.1-1 2.3-1.6 2.7-.7.4-.8 0-.4-1.1.4-1 .7-2.2.7-2.7s.4-.9.9-.9.7.9.4 2m12.4-1.2c1.5-1.2 1.5-1.1.2.9-1.5 2.5-2.9 3-2.9 1 0-.9-.2-.9-.9.1-.4.7-1.4 1.2-2.1 1s-1.5.3-1.8 1.1c-.3 1.1.2 1.2 2.4.8 1.6-.3 2.3-.4 1.6-.1-1.8.8-.4 2.4 1.5 1.7 1.2-.5 1.2-.2-.3 1.5-2.4 2.8-3.7 2.8-2.9 0 .6-1.6.4-2-.8-1.5-2.5.9-3.1-2.5-.8-4.4 1.1-.9 1.7-2 1.3-2.4s.3-.2 1.6.4c1.9 1 2.7 1 3.9-.1m1.7 4.6c-.3.9-1 1.3-1.5 1s-.3-1.1.4-1.9c1.5-1.6 1.9-1.3 1.1.9M327 880c0 .5-.4 1-1 1-.5 0-1-.5-1-1 0-.6.5-1 1-1 .6 0 1 .4 1 1m3.5 4c-.3.5-1 1-1.6 1-.5 0-.9-.5-.9-1 0-.6.7-1 1.6-1 .8 0 1.2.4.9 1m8.2.7c.2.6-.3 1.3-1.1 1.6-1 .4-1.4 0-1.3-1.4.1-2 1.8-2.1 2.4-.2m18.7-.1c.3.8.2 1.2-.4.9s-1-1-1-1.6c0-1.4.7-1.1 1.4.7m-4.1 1.1c-.5 1.2-.2 1.5 1 1 1.8-.7 2.4.8.7 1.8-.6.4-.8 1.6-.5 2.8.4 1.2.3 1.7-.2 1.2-1.2-1.5-4.3-1.5-4.3.1s-1.6 1.9-2.5.5c-.7-1.2 3.1-3.4 4.4-2.7.5.3 1.2-.1 1.5-.9.3-.9-.1-1.8-.9-2.2-1.2-.4-1.3-.9-.4-1.9 1.5-1.9 2-1.8 1.2.3m7.7 0c0 .5-1.3 1.7-2.8 2.7l-2.7 1.9 2.4-2.6c2.6-2.8 3.1-3.2 3.1-2m-29 6.3c0 .5-.4 1-1 1-.5 0-1-.5-1-1 0-.6.5-1 1-1 .6 0 1 .4 1 1m26.4 1.5c-.4.8-.1 1.5.6 1.5.6 0 .8.4.5 1-.3.5-1.1 1-1.6 1-.6 0-.8-.4-.5-.9.4-.5 0-1.2-.6-1.4-1-.4-.9-.8.2-1.6 2-1.4 2-1.4 1.4.4M315.5 915c-.3.4 0 1 .7 1.2.7.3.9 1.1.4 2.4-.8 1.8-.8 1.8-1.7-.4-1-2.7-2.3-3-1.4-.3.7 2.3-1 3.8-1.9 1.6-.8-2.1.3-4.5 2.1-4.5.8 0 1.1-.5.7-1.2s-.3-.8.5-.4c.6.4.9 1.1.6 1.6m2.9-.5c.3.8.1 1.5-.4 1.5-.6 0-1-.7-1-1.5s.2-1.5.4-1.5.6.7 1 1.5m2.9.2c-.3.7-.6 1.3-.8 1.3s-.5-.6-.8-1.3c-.3-.8.1-1.4.8-1.4s1.1.6.8 1.4m5.7 1.3c0 .5-.5 1-1.1 1-.5 0-.7-.5-.4-1 .3-.6.8-1 1.1-1 .2 0 .4.4.4 1m3.7.6c-.3.3-1.2.4-1.9.1-.8-.3-.5-.6.6-.6 1.1-.1 1.7.2 1.3.5M320 918c0 .5-.2 1-.4 1-.3 0-.8-.5-1.1-1-.3-.6-.1-1 .4-1 .6 0 1.1.4 1.1 1m3.4 1.4c-2.1 1.5-3 1.4-1.9-.3.3-.6 1.4-1.1 2.3-1.1 1.3 0 1.3.2-.4 1.4m-4.7 2.1c0 .8-.4 1.2-.9.9-.4-.3-.8-.9-.8-1.5 0-.5.4-.9.8-.9.5 0 .9.7.9 1.5m6.7 0c-.4.8-1.1 1.2-1.6.9-.6-.4-.5-1 .3-1.5 1.9-1.2 1.9-1.1 1.3.6"/><path d="M783.2 167c0 1.4.2 1.9.5 1.2.2-.6.2-1.8 0-2.5-.3-.6-.5-.1-.5 1.3M783.1 171.6c0 1.1.3 1.4.6.6.3-.7.2-1.6-.1-1.9-.3-.4-.6.2-.5 1.3M575.7 219.6c-19.2 5.2-17.7 4.2-17.7 12v6.7l5.3-.6c7.2-.7 28.5-6.6 29-8.1.2-.6.2-3.9-.1-7.4-.3-4.9-.8-6.2-2.1-6.1-.9.1-7.3 1.7-14.4 3.5m13.6 8.4c-.8.7-25.3 7-27.3 7-.7 0-1-1.8-.8-4.7l.3-4.7 13.4-3.3c7.3-1.7 13.6-3.5 14-3.8.3-.4.7 1.4.9 4s0 5.1-.5 5.5M468 226.1c0 .5.5.7 1 .4.6-.3 1-.8 1-1.1 0-.2-.4-.4-1-.4-.5 0-1 .5-1 1.1M458 227.3c0 1.4.6 1.7 2.9 1.4 1.6-.3 3.7-1 4.8-1.6 2.3-1.3 1.7-1.4-2.7-.1-2.5.7-3.6.7-4.2-.3-.5-.8-.8-.7-.8.6M447.3 231.2c-1.8.6-3.3 1.5-3.3 1.9s1.5.2 3.4-.6c1.8-.8 3.6-1.2 3.9-.9s.8.1 1.2-.5c.8-1.3-.9-1.3-5.2.1M416.5 234.6c.9.9 1.9 1.3 2.3 1 .3-.4 0-1.1-.8-1.6-2.4-1.5-3.3-1.1-1.5.6M412.7 235.7c.6 1.5.4 1.6-.8.6-1.1-.9-1.4-.6-1.6 1.8-.1 1.6.3 2.9.8 2.9.6 0 .9-.7.5-1.5-.3-.8-.1-1.5.3-1.5.8 0 2.4 3 1.9 3.5-1.3 1.1-4.8 1.4-4.8.5 0-.7-.7-1-1.4-.7-1 .4-1.3.1-.9-.8.3-.8.9-1.2 1.4-.9s.9 0 .9-.6c0-.7-.7-.9-1.6-.6s-1.2.2-.9-.5c.4-.6 1.3-.8 2.1-.5s1.1 0 .8-.8c-.8-2-5-.8-5 1.4 0 1 .4 1.7.7 1.4.4-.2.6.8.5 2.3-.2 1.5-.8 2.9-1.5 3.1-.6.2-1-.6-.9-2 .2-1.5-.2-2.3-1.2-2.3-.8 0-2.1-.7-2.8-1.5-1.2-1.3-1.3-1.3-.8.2.3 1 .1 1.8-.4 1.8-.6 0-.9.3-.9.7.3 2.1-.2 3.2-1.5 2.7-.8-.3-1.7 0-2.1.5-.7 1.3-2.5.5-2.5-1 0-.6.4-.8.9-.4 1.5.9 2.5-1.5 1.2-2.8-.9-.9-1-.7-.5.8.7 1.7.6 1.8-.9.7-1.3-1.1-2.5-1-7.4.4-7.1 2.2-6.7 1.9-5.3 4.1 1 1.6 1.1 1.6.6 0-.6-2 .4-2.2 2.3-.5 1.2 1.1 1.3 1 .7-.6-.6-1.7-.5-1.8 1.7-.3 2.7 1.7 5 .6 4-1.9-.3-.8.1-1.4 1.1-1.4.8 0 1.3.6 1.1 1.2-.7 2 1.1 4.2 2.6 3.2.8-.5 1.9-.9 2.4-1 .6 0 1.9-.2 3-.3 1.1-.2 1.5-.5.8-.7-.7-.3-.9-1.2-.6-2 .4-1.2.7-1.2 1.8.3.7 1 1.1 2.1.9 2.5-.6.9 2.8 1.1 5 .2.9-.3 1.2-1.2.8-2.2-.5-1.4-.3-1.5 1-.4 1.3 1 2.3 1 5.7-.4 2.2-.9 3.8-2 3.5-2.5s0-.9.5-.9c2 0 1.1-1.6-1.8-3.3-3.7-2.1-4.2-2.1-3.4 0m3.3 4.3c0 1.3-.1 1.3-1 0-.5-.8-1-2.2-1-3 0-1.3.1-1.3 1 0 .5.8 1 2.2 1 3m-13 2c0 .5-.4 1-1 1-.5 0-1-.5-1-1 0-.6.5-1 1-1 .6 0 1 .4 1 1m-16 2c0 .5-.2 1-.4 1-.3 0-.8-.5-1.1-1-.3-.6-.1-1 .4-1 .6 0 1.1.4 1.1 1"/><path d="M401.5 238c.3.5.8 1 1.1 1 .2 0 .4-.5.4-1 0-.6-.5-1-1.1-1-.5 0-.7.4-.4 1M394.7 239.6c.7.3.9 1.2.6 2s-.1 1.4.4 1.4.9-.9 1-2c.1-1.3-.4-2-1.5-1.9-1 0-1.2.3-.5.5M373.6 245.7c-.4.5-1.2.9-1.7.9-.5.1-1.3.2-1.9.3-.5 0-.7.8-.3 1.7.4 1.1.8 1.2 1.3.4.6-.9.9-.9 1.5 0 .4.7.2 1.6-.5 2-.9.5-.9.9-.1 1.4.6.4 1.1.2 1.1-.4s.5-.8 1-.5c.6.3 1 .2 1-.4 0-.5-.4-1.3-1-1.6-.5-.3-1-1.2-1-1.8.1-.7.9-.2 1.9 1 1.7 2 6.6 3 5.4 1-.3-.4-1.1-.6-1.9-.3s-1.4 0-1.3-.7c.4-3.4-1.4-5-3.5-3M388 248.2c0 2.1 0 2.1-1.6.2-1-1.3-1.7-1.5-2-.7-.3.7-1.2.9-2.1.6-1.1-.4-1.4-.3-.9.6.5.7 1.5 1 2.4.6.8-.3 1.8-.1 2.2.5.4.7 1.4.7 3.1.1 1.3-.5 1.9-1 1.2-1-.7-.1-1-.8-.7-1.6.4-.8.1-1.5-.5-1.5s-1.1 1-1.1 2.2M366.7 249.1c-.3 1.2-1 1.8-1.6 1.4-.6-.3-.8-1.1-.5-1.7.4-.7.2-.8-.4-.4s-.8 1.4-.5 2.3c.5 1.2.3 1.4-.7.8-.8-.5-1.1-.4-.7.3.4.5 1.7.8 3 .5 2.1-.4 2.2-.4.3 1.1-1.1.9-1.5 1.6-.9 1.6.7 0 1.5-.5 1.8-1 .4-.6 1.2-.7 1.8-.4.8.5.8.3 0-.7-1.9-1.9-1.6-3.4.4-1.8 1.5 1.3 1.5 1.2.3-1.1-1.7-3.4-1.7-3.4-2.3-.9M393.3 247.7c-.7.2-1.3.9-1.3 1.4 0 .6.6.7 1.3.2.6-.4 1.8-.8 2.5-.9.8-.2 1.6-.5 2-.8.6-.7-2.8-.6-4.5.1M357.4 251.2c-.4.6-.2 1.4.4 1.6.7.2 1.2.7 1.2 1.2 0 1.3-2.9 2-3.6.8-.4-.7-.3-.8.4-.4 1.4.8 1.5-.3.4-2.2-.5-.7-1.6-1-2.5-.6-.9.3-1.4 1-1.1 1.5s0 .9-.5.9c-.6 0-1.1-.5-1.1-1 0-.7-.6-.7-1.9-.1-1 .6-2.1.7-2.5.4-.3-.3-.6-.2-.6.4s.8 1.7 1.7 2.4c1.5 1.2 1.6 1.2 1-.4-.4-1.1-.2-1.7.8-1.7.9 0 1.2.6.9 1.5-.4.8-.1 1.5.6 1.5.6 0 .8-.5.5-1-.3-.6-.1-1 .4-1 .6 0 1.1.5 1.1 1.1 0 .5.4.8.9.4.5-.3 1.2-.1 1.6.5s1 .8 1.5.5 1.1-.1 1.5.5c.3.5 1.3 1 2.1 1 1.1 0 1.4-.6.9-2.3-.6-2-.5-2.1.8-.5 2.6 3.3 2.6 1.8 0-2.2-2.8-4.2-3.7-4.7-4.9-2.8m3.5 3.2c-.3.3-1.1-.5-1.8-1.7-1.3-2.1-1.2-2.1.5-.5 1 1 1.6 2 1.3 2.2m-.4 2.6c.3.5.1 1-.4 1-.6 0-1.1-.5-1.1-1 0-.6.2-1 .4-1 .3 0 .8.4 1.1 1M370 255c-1.3.8-1.3 1 .2 1 .9 0 2-.5 2.3-1 .8-1.3-.5-1.3-2.5 0"/><path d="M340.6 257.1c1.1 1.2 2 1.6 2.2.9.3-.7 1-.3 1.9.9 1.1 1.6 1.8 1.9 3.2 1.2 1.2-.7 2.2-.6 3.1.2 1 1 1 .7 0-1.3-.8-1.5-1.5-2-1.7-1.3-.4 1-.8.9-2-.2-.8-.8-1.9-1.3-2.4-1-.5.4-.9.1-.9-.4 0-.6-.5-1.1-1.1-1.1-.5 0-.7.4-.4 1 .3.5.1 1-.4 1-.6 0-1.1-.5-1.1-1 0-.6-.5-1-1.2-1-.6 0-.3.9.8 2.1m5.9.9c.3.5.1 1-.4 1-.6 0-1.1-.5-1.1-1 0-.6.2-1 .4-1 .3 0 .8.4 1.1 1M336.6 257.5c.4.8.1 1.5-.5 1.5s-1.1-.4-1.1-.9c0-.4-1.2-.6-2.6-.3-1.6.3-2.3.9-2 1.8.3.8.1 1.4-.3 1.4-.5 0-1.1-.5-1.3-1-.2-.6-1.7-.8-3.6-.4-2.1.4-3.1 1.1-2.8 2 .6 1.6-2.1 2.7-3 1.2-.4-.7-.3-.8.4-.4s1.2.2 1.2-.3c0-1.3-1.7-1.5-2.4-.3-.2.4-.1 1.4.3 2.1 1.1 1.7 5.1.5 5.1-1.5 0-.8.4-1.3 1-.9.5.3.7 1.2.3 2-.3.8 0 1.5.6 1.5s1.1.7 1.1 1.5-.5 1.5-1.2 1.5c-.6 0-.9.2-.7.5.3.2 2.2 0 4.4-.6 2.8-.8 3.5-1.3 2.4-2-1.2-.7-1.2-.9.1-.9 1.1 0 1.1-.3.2-1.2-1.7-1.7-1.5-3.3.3-1.8.8.7 1.5 1.9 1.5 2.6 0 .8.8 1.4 1.8 1.3 1 0 1.2-.3.5-.6-.7-.2-1.3-1.2-1.3-2 0-1.4.2-1.4 1.8 0 1 1 2.2 1.7 2.6 1.7s-.6-1.2-2.1-2.6c-2.4-2.2-2.5-2.4-.7-1.9s2.1.2 1.6-2c-.2-1.4-.8-2.5-1.3-2.5s-.6.7-.3 1.5m-1.9 3c0 .8-.4 1.5-.8 1.5s-.9-.7-1.3-1.5c-.3-.9 0-1.5.8-1.5.7 0 1.3.7 1.3 1.5m-4.3 4.8c-.9 2.5-2.5 2.1-2.1-.6.2-1.2.2-1.6 0-.9-.7 2.1-2.2.4-1.6-1.9.6-2 .6-2 2.5-.2 1.1 1.2 1.6 2.6 1.2 3.6M353.7 258.9c-.4 1.7-.3 2.1.5 1.3.5-.5.8-1.6.6-2.3-.3-.8-.7-.3-1.1 1M339.5 260.5c0 1.3.3 2.1.8 1.8.4-.2.7-1 .7-1.8s-.3-1.6-.7-1.8c-.5-.3-.8.5-.8 1.8M343 260.4c0 .2.8 1 1.8 1.7 1.5 1.3 1.6 1.2.3-.4s-2.1-2.1-2.1-1.3M347 262c0 .5.7.7 1.5.4.8-.4 1.5-.8 1.5-1s-.7-.4-1.5-.4-1.5.4-1.5 1M313 263.9c0 .6.5 1.3 1 1.6.6.3 1-.1 1-.9 0-.9-.4-1.6-1-1.6-.5 0-1 .4-1 .9M316 263.5c0 .5 1 2.1 2.1 3.5 1.3 1.7 1.7 1.8 1 .5-1.7-3.3-3.1-5.1-3.1-4"/><path d="M310.6 265.1c.4.8 0 .9-1.5.4-1.6-.5-2-.3-1.5.9.3.9.2 1.6-.4 1.6s-1.2-.5-1.4-1.1c-.2-.5-1.1-.7-2.1-.4-.9.4-1.4 1.1-1.1 1.6s.1.9-.5.9-.8.6-.5 1.4 0 1.7-.7 2.2c-.9.5-1-.1-.6-2.6.6-2.7.4-3.1-.9-2.6-.9.3-2 .6-2.6.6s-.2 1.2.7 2.7c1.6 2.4 1.6 2.6.1 2-1-.4-1.5-.3-1.1.3.9 1.4-1.9 1.2-3.3-.2-1.7-1.7-1.5-3.3.3-1.8 1.2 1 1.5 1 1.5-.3 0-1.5-.5-1.6-6-.2-.8.2-1.9.4-2.3.4-.5.1-.5.5-.2 1.1.3.5.2 1-.4 1-.5 0-1.1-.3-1.4-.8-.2-.4-.2-.2-.1.5.2.8-.7 1.1-2.7.8-2.8-.3-3.9.8-1.9 2 .6.3 1 1.1 1 1.7 0 .5-.8 0-1.8-1.2-1.1-1.4-2.3-1.9-3.5-1.5-.9.4-1.4 1.1-1.1 1.6s0 .9-.6.9-.8.5-.4 1.1c.4.8 1.1.4 1.9-1.1l1.2-2.3 1.7 2.6c1.5 2.3 2.1 2.4 4.2 1.5 1.3-.6 2.4-1.9 2.4-2.9 0-2.3 2.8-1.8 5.1 1 1.5 1.8 2.2 2 3.6 1.1 1.1-.7 1.2-1 .3-.7-1 .3-1.5-.4-1.7-2.2-.1-2.2 0-2.4 1.1-.9.8 1.1 1.7 1.4 2.6.8.8-.5 1.8-.6 2.2-.4.4.3.8 0 .8-.7s.6-.5 1.3.6c1.3 1.7 1.7 1.7 6 .2 2.5-.8 4.9-1.2 5.2-.9.4.4.4-.4.1-1.8-.6-2.3-.6-2.4.7-.7.8.9 2.1 1.5 2.9 1.2 1.5-.6 1.8-4.9.4-6.2-.5-.5-.7-.1-.3.9s.2 1.8-.3 1.8-.6.7-.3 1.7c.4 1.1.3 1.4-.6.9-.6-.4-.9-1.6-.6-2.7.4-1.1 0-2.5-.9-3.4-1.7-1.8-3-2-2-.4m-2.4 3.3c2.1-1.3 4.8-1.5 4.8-.3 0 .5-.4.7-1 .4-.5-.3-1-.1-1 .5 0 .7-.7 1-1.5.7-.8-.4-1.7-.2-2 .3-.4.6.1 1 .9 1 .9 0 1.6.4 1.6.9 0 .9-8.1 3.3-8.9 2.5-.8-.7.5-1.4 3.1-1.6s2.6-.3 1.1-3.3c-1.5-2.8-1.5-2.9 0-1.7.9.8 2.2 1 2.9.6m-3.7 1.5c.3.5.1 1.2-.5 1.6-.5.3-1-.1-1-.9 0-1.8.6-2.1 1.5-.7m-13.3 2.9c-1 .3-1 .7-.1 1.8 1.4 1.7-.2 1.9-1.9.2-1.5-1.5-1.6-3.2-.2-2.3.6.3 1 .1 1-.5s.5-.8 1.2-.4c.9.6.9.9 0 1.2m-7.4 3c.6 1.8-1.5 1.4-2.2-.4-.4-1-.1-1.4.6-1.2.6.2 1.4 1 1.6 1.6M322.2 265.8c-.7.5-1 1.6-.6 2.5.9 2.5 2.3 2.1 1.6-.5-.4-1.6-.2-1.9.8-1.3q1.35.75.6-.3c-.8-1.4-.7-1.4-2.4-.4"/><path d="M287.5 277.2c1.9 1.1 1.9 1.1 0 1.9-1.9.7-1.8.8.3.8 1.2.1 2.2-.3 2.2-.7 0-1.2-2.2-3.2-3.4-3.2-.6 0-.2.6.9 1.2M283 280c0 .5.5 1 1.1 1 .5 0 .7-.5.4-1-.3-.6-.8-1-1.1-1-.2 0-.4.4-.4 1M279.8 281.7c.7.3 1.6.2 1.9-.1.4-.3-.2-.6-1.3-.5-1.1 0-1.4.3-.6.6M155 268.7c0 2.7 4.3 4.8 10.1 4.8 3.2 0 6.3-.5 6.8-1 .7-.7-1.4-1-5.9-1-5.3 0-7.3-.4-8.9-1.9-1.2-1.1-2.1-1.5-2.1-.9M175.6 282.8c-.3.5.1.9.9.9s1.2-.4.9-.9c-.3-.4-.7-.8-.9-.8s-.6.4-.9.8M642 276.5c-8.5 1.9-27.9 6-43 9.1s-39.6 8.2-54.5 11.4c-14.8 3.2-31.9 6.8-38 8-6 1.2-21.6 4.4-34.5 7.2-12.9 2.7-42.3 8.9-65.2 13.8-27.1 5.7-43.7 9.7-47.3 11.4-7.6 3.4-16.8 12.5-20.5 20-6.1 12.4-6.1 11.6-5.8 111.9l.3 91.2 2.3 5.7c3.1 7.7 10.7 15.9 17.4 18.8 4.6 2 6.4 2.2 15.3 1.7 5.5-.3 18.1-1.4 28-2.6 33.5-3.8 144.8-16.1 174-19.1 60-6.2 94.1-10 98.5-11.1 11.9-2.8 24-13.1 29.9-25.1 6.3-13 6.1-8.6 6.1-116.4 0-93.9-.1-98.4-1.9-105.7-2.7-10.3-6.4-17.5-12-23.2-10.8-11.2-22.8-12.9-49.1-7m24.4 26.6c3 2.4 3.5 7.1 1.1 10.5-1.8 2.6-2.3 2.8-46.5 11.9-84.1 17.5-80 16.9-82.8 11.3-1.5-3.2-.3-7.1 3-9.2 1.3-.8 11.3-3.3 22.3-5.6 30.5-6.3 93.9-20.1 94.4-20.6 1.2-1.1 6.1-.2 8.5 1.7m-54 89c7.4 2.7 13.9 9.2 17.9 17.7 2.7 5.8 3.2 8 3.5 16.8.6 15.7-3.4 26.9-13.5 37.5-13.5 14.2-33 15.2-47.2 2.4-9.2-8.3-13.8-25.2-10.8-39.6 5.5-26.9 28.5-42.9 50.1-34.8m-170.1 26.1c5.5 1.7 14 9.7 17.3 16.4 3.2 6.6 4.4 20.4 2.5 29.6-2.6 12.4-11.3 24.8-21.3 30.3-4.7 2.7-6.2 3-13.8 3-9.9 0-14-1.7-20.7-8.7-6-6.2-9.4-14.2-10-23.8-1.3-18 5.4-33.2 18.4-42.2 8.1-5.5 18.7-7.3 27.6-4.6m87.5 9.1c.7.7 1.2 8.6 1.3 19.7.2 16.7.1 18.9-1.8 23-3.9 8.9-11.3 14.1-19.7 14.2-8 .1-13-3.2-16.1-10.5-1.8-4.3-2.2-36.5-.5-39.8 1.2-2.1 5-2.5 6.8-.7.8.8 1.2 5.9 1.2 16.5 0 16.4 1 21.2 4.8 23.2 3.2 1.7 7.1 1.3 10.3-1 5.3-3.8 5.9-6.2 5.9-24.6 0-13.6.3-17.3 1.6-19.1 1.7-2.4 4.6-2.9 6.2-.9M718 408c0 1.1.4 2 .9 2s.7-.9.4-2-.7-2-.9-2-.4.9-.4 2M721.3 419.7c.1 2.6 1.2 3 2.1.7.3-.8.2-1.3-.3-.9-.5.3-1.1-.1-1.4-.7-.3-.7-.4-.3-.4.9M720.5 425.9c-.3.6-1.1.9-1.6.6-.5-.4-.9-.1-.9.4 0 1.3 1 1.4 3 .1.8-.5 1.2-1.2.8-1.5-.3-.4-.9-.1-1.3.4M719.3 429.7c-2.1.8-1.5 4.3.6 4.3 2.3 0 4 2.2 2.3 2.8-1.5.5-1.6 4.2-.1 4.2.6 0 .9-.7.6-1.5-.4-.8-.1-1.7.5-2.1s.8-.3.4.4.1 1 1.4.9c1.1-.1 2-.6 2-1.2 0-.5.4-.3 1 .5 1.5 2.4 2.2.5.9-2.6-1.1-2.9-1.1-2.9-2-.7-1.1 3-2.3 2.9-3.7-.2-.8-1.8-1.6-2.3-2.9-1.8-1.6.6-1.6.5-.4-1 1.5-1.9 1.3-2.7-.6-2"/><path d="M718 437.5c0 1.4.5 2.5 1.1 2.5s.9-.6.6-1.4c-.3-.7 0-1.9.6-2.5.8-.8.7-1.1-.6-1.1-1.1 0-1.7.8-1.7 2.5M718 454c0 .5.5 1 1.1 1 .5 0 .7-.5.4-1-.3-.6-.8-1-1.1-1-.2 0-.4.4-.4 1M724.7 480.7c.3.7.6 1.3.8 1.3s.5-.6.8-1.3c.3-.8-.1-1.4-.8-1.4s-1.1.6-.8 1.4M724 484.5c0 .8.2 1.5.4 1.5s.6-.7 1-1.5c.3-.8.1-1.5-.4-1.5-.6 0-1 .7-1 1.5M721.5 486c1 1.1 2 2 2.2 2s-.2-.9-.9-2-1.7-2-2.2-2-.1.9.9 2M718.4 487.5c0 1.4.5 2.5 1 2.5s.3.7-.4 1.5c-.7.9-.8 1.5-.2 1.5 1.6 0 2.2-2.8 1.2-5.5-1.2-3.2-1.8-3.2-1.6 0M718.3 496.5c0 1.7.5 2.5 1.6 2.4.9 0 1.1-.3.4-.5-.7-.3-1-1.1-.7-1.9.3-.7.1-1.6-.4-1.9s-.9.6-.9 1.9M571.7 580.7c-.4.3-.7 7.3-.7 15.5V611h5v-15.5c0-14.4-.1-15.5-1.8-15.5-1 0-2.2.3-2.5.7M557 597c0 14.3.1 15 2 15 1.7 0 2-.7 2-5.3 0-2.8.3-9.6.7-15l.6-9.7H557zM443.4 596.9c-9.9 6-10.7 22.8-1.3 27.7 4.1 2.1 4.9 1.7 1.1-.6-1.8-1.1-4-3.5-4.9-5.5-1.4-3-1.5-4.2-.4-9 .7-3.1 2.3-6.8 3.6-8.3l2.3-2.7 2.3 2 2.2 2-1.3-2.4c-1-1.9-1-2.2.2-1.5.7.5 2.1.7 3.1.6.9-.2 1.7.1 1.7.7s-.8.8-1.7.5c-1.3-.4-1.4-.3-.5.3.7.5 1.4 2 1.7 3.3.2 1.2.7 2.5 1 2.9.3.3.4-.8.1-2.4-.8-4.4.7-6.2 2.4-3 .8 1.4 1.9 2.4 2.6 2.1.8-.3 1 .3.7 1.7-.4 1.7-.2 1.9.5.8 1.5-2.1.8 9.9-.8 13.1-1.5 3.2-3.1 3.7-2.3.8.3-1.1.9-2 1.4-2s.9-.5.9-1.1-.9-.9-2-.6-2 0-2-.6-.3-.8-.6-.5.1 1.6.8 2.7c1.1 1.8 1.1 2.3-.2 3.1-1 .6-1.1 1-.2 1 .6 0 1.2.5 1.2 1 0 .6-1 .9-2.2.7-1.3-.2-1.7-.2-.9 0 1.2.4 1.2.6 0 1.4-1 .6-1 .9-.2.9 2.5 0 9-6.9 10.2-11 3.9-13.2-7.7-24.7-18.5-18.1M502.4 597.4c-.7 3.1.1 4.6 2.6 4.6 2.3 0 4.2-3.2 3.4-5.4-1-2.6-5.3-2-6 .8"/><path d="M454 603.4c0 .8.4 1.7.9 2 .5.4.7-.3.4-1.4-.6-2.3-1.3-2.6-1.3-.6M446.1 607.9c-2.2 2.2-1.8 5.8.7 7.8 3.4 2.8 7.2-5.3 4-8.5-1.6-1.6-2.5-1.5-4.7.7M439 608.9c0 .6.4 1.3 1 1.6s.7-.1.4-.9c-.7-1.8-1.4-2.1-1.4-.7M453.2 609.2c.2.6 1.2 1.2 2.2 1.4 1.4.2 1.5 0 .5-1.2-1.4-1.7-3.2-1.9-2.7-.2M458.1 609.6c0 1.1.3 1.4.6.6.3-.7.2-1.6-.1-1.9-.3-.4-.6.2-.5 1.3M442 613.9c0 .6.4 1.3 1 1.6s.7-.1.4-.9c-.7-1.8-1.4-2.1-1.4-.7M448.4 624.8c.3.5 0 1.3-.6 1.5-.8.3-.6.6.5.6 1.9.1 2.3-1.4.5-2.5-.6-.4-.8-.3-.4.4M228 272.7c-3.4 1.2-9.2 5.9-10.6 8.4-1.9 3.8-1.8 6.8.6 13.3 3.2 8.4 3.5 8.5 15.6 4.6 13-4.2 13.9-5.1 12.3-11.6s-4.4-11.9-7.1-13.8c-2.2-1.5-7.7-2-10.8-.9m10.4 5.9c2.4 2.5 4.6 7.9 4.6 11.6 0 1.2-.8 1.8-2.2 1.8-1.3 0-5 1.2-8.3 2.6-9.6 4.1-9.1 4.2-11.4-2-2.4-6.6-1.8-9.2 2.9-12.6 6.3-4.5 10.8-4.9 14.4-1.4M228.7 342.3c-.3.8.1 1.4.8 1.4s1.1-.6.8-1.4c-.3-.7-.6-1.3-.8-1.3s-.5.6-.8 1.3M224.5 344c.3.5.8 1 1.1 1 .2 0 .4-.5.4-1 0-.6-.5-1-1.1-1-.5 0-.7.4-.4 1M233.5 344c-.3.5-.1 1 .4 1 .6 0 1.1-.5 1.1-1 0-.6-.2-1-.4-1-.3 0-.8.4-1.1 1M779.5 344.4c-6.1 1.9-9.6 4.1-13.7 8.3-8.4 8.6-12.9 26.1-10.6 40.8 2.7 17.2 18.1 32.8 30.6 31.1 6.1-.8 8.7-2.4 4-2.4-19.6 0-35.3-24.9-30.8-49.1 3-16.4 14.6-27.4 29-27.5 3.6-.1 7.9.2 9.5.6 2.5.6 2.3.4-1-1.2-4.6-2.2-11.2-2.4-17-.6"/><path d="M782.5 363.4c-4.8 2.1-8.2 6.9-9.5 13.2-2.6 12.4 3.3 23.4 13.4 24.9 10.6 1.6 19.6-7 19.6-18.8 0-13.5-12.9-24.2-23.5-19.3m10.3 6c9 4.7 11.9 17.1 5.6 24.5-6.5 7.7-15.4 5.4-19.9-5.1-2-4.9-1.9-8.4.4-13.4 3.1-6.9 8.1-9 13.9-6M202 359c0 .5.5 1 1.1 1 .5 0 .7-.5.4-1-.3-.6-.8-1-1.1-1-.2 0-.4.4-.4 1M202.7 363.4q-.6 1.5.9.9c1.5-.6 1.9-2.3.5-2.3-.5 0-1.1.7-1.4 1.4M198.1 365.9c-.8.5-.9 1.1-.3 1.5.5.3 1.2-.1 1.6-.9.6-1.7.6-1.8-1.3-.6M204 366.1c0 .5.5.7 1 .4.6-.3 1-.8 1-1.1 0-.2-.4-.4-1-.4-.5 0-1 .5-1 1.1M165.5 360.9c.3.6-.3 1.4-1.2 2-1.7 1-1.7 1 0 1.1.9 0 1.7-.2 1.7-.4s.3-1.1.6-2 .1-1.6-.6-1.6c-.6 0-.9.4-.5.9M173.6 368.5c-.3.8-.1 1.5.3 1.5.5 0 1.1-.7 1.5-1.5.3-.8.1-1.5-.3-1.5-.5 0-1.1.7-1.5 1.5M177.2 369.2c-.7.9-.6 1.7.4 2.6s1.4.9 1.4.1c0-.6.7-.9 1.5-.6 1.9.8 3.1-1.1 1.6-2.6-.8-.8-1.5-.6-2.7.9-1.3 1.6-1.5 1.6-1 .1.6-2 .2-2.2-1.2-.5M176.5 374.9c-.3.5-.2 1.2.3 1.5s.9-.1.9-.9c0-1.7-.3-1.9-1.2-.6M171 377.9c0 1 1.9 2.5 2.5 2 .1-.2-.3-1-1.1-1.7s-1.4-.8-1.4-.3M732.8 449.6c-.4.3-.1 1.3.7 2 1.8 1.8 2.5 1.8 2.5-.2 0-.8-.4-1.3-.9-1-.5.4-1.1.1-1.3-.5-.2-.5-.6-.7-1-.3M734 455c-.8.6-1 1-.5 1 .6 0 .4.4-.4.9-.7.5-1 1.4-.6 2.1.5.8 1.2.2 2.1-1.6 1.6-3.1 1.5-3.7-.6-2.4M753 450.5c0 .8.7 1.5 1.6 1.5 1.4 0 1.4-.3.4-1.5-.7-.8-1.4-1.5-1.6-1.5s-.4.7-.4 1.5M756.1 515.6c0 1.1.3 1.4.6.6.3-.7.2-1.6-.1-1.9-.3-.4-.6.2-.5 1.3M754 518.9c0 .6.4 1.3 1 1.6s.7-.1.4-.9c-.7-1.8-1.4-2.1-1.4-.7M757 519c0 .5.5 1 1 1 .6 0 1-.5 1-1 0-.6-.4-1-1-1-.5 0-1 .4-1 1M760.3 519.4c.3.7 0 2-.6 2.7-1 1.1-.9 1.1.5 0 1.5-1.1 1.5-4.1.1-4.1-.3 0-.3.6 0 1.4M306 543c0 .5.5 1 1.1 1 .5 0 .7-.5.4-1-.3-.6-.8-1-1.1-1-.2 0-.4.4-.4 1M848 577.2c-5.4 9-3 23.2 5 28.5 4.5 3.1 5.9 2.9 2-.3-5.1-4.3-7.4-9.9-7.4-17.4.1-3.6.8-8.2 1.7-10.3 2-4.5 1.3-4.8-1.3-.5M863.2 576.6c-9.3 6.5-4.8 21.2 6.5 21.4 6.9 0 12.6-8.9 9.9-15.5-2.8-6.7-11.1-9.7-16.4-5.9m10 5.1c2.2 2 2.4 7.6.2 9.7-2.2 2.3-6 2-7.8-.6-4.5-6.4 2-14.2 7.6-9.1M851.7 615.1c.7.7 1.5 1 1.8.7s-.2-.9-1.2-1.2c-1.4-.6-1.5-.5-.6.5M650.1 590.6c-3.1 2.6-5.4 8.3-4.4 11.2 1.3 4.1 2.9 6.5 5.5 7.8 2.5 1.3 3.2 1.3 6.1-.1 4.1-1.9 6.7-6.2 6.7-11 0-2.9-.8-4.5-3.4-7.1-4.1-4.1-6.4-4.3-10.5-.8m9.7 4.7c1.6 3.3.9 7-1.8 9.7-2.5 2.5-4.1 2.5-7 .2s-3.1-8.3-.5-11.2c2.8-3.1 7.6-2.4 9.3 1.3M399.7 612.1c-2.4 1.4-4.7 6.2-4.7 9.9 0 3.5 4.6 9 7.5 9 .9 0 3-1.3 4.6-2.9 2.4-2.5 2.9-3.8 2.9-7.8 0-7.3-5-11.3-10.3-8.2m6.1 3.1c1.5 1.5 1.6 7.2.2 9.9-.6 1.1-2.1 1.9-3.5 1.9-4.5 0-5.9-5.9-2.4-10.4 2.2-2.8 3.9-3.2 5.7-1.4M364.5 616.6c-4.8 5.2-2.1 16.4 4 16.4 5.5 0 8.5-3.9 8.5-11 0-7.6-7.5-10.8-12.5-5.4m8.5 1.9c3.3 4-.8 13.4-4.8 10.9-.9-.6-2.1-2.5-2.6-4.2-1.6-5.7 4-10.8 7.4-6.7M404.1 660.2c-1.1 2.9.4 5 3.3 4.6 3.1-.4 3-6.2-.2-6.6-1.6-.2-2.5.3-3.1 2M759.6 765.2c.4.6 0 1.5-.7 2-1.1.8-1 .8.4.4 1-.3 2.3-.6 2.8-.6 1.7 0 .9-1.8-1.1-2.3-1.2-.3-1.8-.1-1.4.5M756 770c-.9.6-1 1-.3 1 .6 0 1.5-.5 1.8-1 .8-1.2.4-1.2-1.5 0M760 769.9c0 .6.4 1.3 1 1.6s.7-.1.4-.9c-.7-1.8-1.4-2.1-1.4-.7M328 691.1c0 .5.5.7 1 .4.6-.3 1-.8 1-1.1 0-.2-.4-.4-1-.4-.5 0-1 .5-1 1.1M319.5 692c-.4.7.3.8 2.2.4 3.8-.9 4.2-1.4 1-1.4-1.4 0-2.9.5-3.2 1M373.5 693c-.3.6.1.7.9.4 1.8-.7 2.1-1.4.7-1.4-.6 0-1.3.4-1.6 1M304 917.4c0 .2.7.6 1.5 1 .8.3 1.5.1 1.5-.4 0-.6-.7-1-1.5-1s-1.5.2-1.5.4M295.8 921.7c.6.2 1.8.2 2.5 0 .6-.3.1-.5-1.3-.5s-1.9.2-1.2.5M784.6 720.1c.5.8.9 2.4 1 3.7.1 2.7.2 2.8 3.9 3.6 1.8.4 2.5.3 1.7-.2-.7-.5-1-1.6-.6-2.5.7-1.9-1.2-4.1-4.5-5.2-1.8-.6-2.2-.4-1.5.6m4.5 5.2c-.8.8-1.4.8-2.3-.2-1.1-1.1-1-1.2.1-.6 1 .6 1.1.2.6-1.6-.7-2.2-.7-2.2 1-.5 1.3 1.3 1.5 2 .6 2.9M792.3 724.5c0 .8.4 1.2.9.9s.6-1 .3-1.5c-.9-1.3-1.2-1.1-1.2.6M374 759c0 .5.5 1 1.1 1 .5 0 .7-.5.4-1-.3-.6-.8-1-1.1-1-.2 0-.4.4-.4 1M381.5 766c-.3.5-.1 1 .4 1 .6 0 1.1-.5 1.1-1 0-.6-.2-1-.4-1-.3 0-.8.4-1.1 1M388.1 765.5c.1 1.9 1.8 5.1 1.8 3.5 0-.8-.4-2.2-.9-3s-.9-1.1-.9-.5M382 771c-.9.6-1 1-.3 1 .6 0 1.5-.5 1.8-1 .8-1.2.4-1.2-1.5 0M323 773.6c-7.4 2-16.9 7.5-22.4 13-5.1 5.1-11.2 16.6-12.5 23.6-1.2 6.6.2 6 2.3-1 3.4-11.1 10.4-20.6 19.7-26.7 7.4-5 9.7-6 18.9-8.5 5.4-1.5 5.9-1.8 3-1.8-1.9-.1-6 .6-9 1.4M256 821c0 .5.5 1 1.1 1 .5 0 .7-.5.4-1-.3-.6-.8-1-1.1-1-.2 0-.4.4-.4 1M312 860c0 .5.5 1 1 1 .6 0 1-.5 1-1 0-.6-.4-1-1-1-.5 0-1 .4-1 1M313.7 863c-1.3 1.6-1.4 2-.3 2 .8 0 1.7-.7 2-1.6.9-2.5.2-2.6-1.7-.4M307.6 874.7c-.6 1.4-.5 1.5.5.6.7-.7 1-1.5.7-1.8s-.9.2-1.2 1.2M312 875c.8.5 2 1 2.5 1 .6 0 .3-.5-.5-1s-1.9-1-2.5-1c-.5 0-.3.5.5 1M333 875c0 .5.5 1 1 1 .6 0 1-.5 1-1 0-.6-.4-1-1-1-.5 0-1 .4-1 1M316 877.1c0 .6-.7.9-1.5.6-.8-.4-1.7-.2-2 .3-.4.6.5 1 1.9 1s2.8.5 3.1 1c.4.6 1 .8 1.5.5s1.5.4 2.3 1.5c.7 1.1 1.6 1.7 2 1.4.9-.9-3.7-5.2-5.1-4.6q-1.2.45-.6-1.2c.3-.9.1-1.6-.5-1.6s-1.1.5-1.1 1.1M338.6 879.8c-.2.4.2 1.2.9 1.9 1 1 1.4.9 1.8-.2.6-1.4-1.9-3-2.7-1.7M311 881.2c3.6 1.5 7.2 1.9 6.4.6-.3-.5-1.5-.8-2.5-.5s-2.2.1-2.5-.4-1.3-.9-2.2-.8c-1.1 0-.9.4.8 1.1M307 883c0 .5.5 1 1.1 1 .5 0 .7-.5.4-1-.3-.6-.8-1-1.1-1-.2 0-.4.4-.4 1"/><path d="M319 883.6c0 .8.5 1.2 1 .9.6-.4.8-1.1.5-1.6-.9-1.4-1.5-1.1-1.5.7M312 884.8c0 .4 1.2.8 2.8.9 2.3.1 2.4.1.7-.7-2.6-1.1-3.5-1.2-3.5-.2M324 885c0 .5.5 1 1 1 .6 0 1-.5 1-1 0-.6-.4-1-1-1-.5 0-1 .4-1 1M319.8 885.8c-1 .2-1.8.8-1.8 1.4 0 .5.7.7 1.6.4.9-.4 2.3-.1 3 .5.8.7 1.4.7 1.4.1 0-1.5-2.3-2.9-4.2-2.4M311 888c0 .5.3.9.8.9 1.8-.3 3.2.2 3.2 1.1 0 .5-.8.7-1.7.4-1.5-.5-1.6-.4-.3.5 1.1.8 1.8.7 2.7-.6 1.5-1.9 1.6-1.8-1.9-2.7-1.7-.4-2.8-.2-2.8.4M337.2 890.7l-2.3 2.5 2.3-.8c2.2-.7 3.8-2.1 3.8-3.7 0-1.3-1.5-.5-3.8 2M317.5 890c-.3.5.3.7 1.2.6 1-.2 2.2.2 2.6.8.6.7.7.6.5-.3-.5-1.6-3.5-2.4-4.3-1.1M318 893.4c0 .2.7.7 1.6 1 .8.3 1.2.2.9-.4-.6-1-2.5-1.4-2.5-.6M341.4 896.1c-.9 1-1.2 1.9-.7 1.9.6 0 1.4-.7 1.7-1.6.6-1.6 2.6-1.1 2.6.7 0 .6-.5.7-1.2.3-.6-.4-.8-.3-.4.4.3.5 0 1.3-.6 1.5-.8.3-.6.6.5.6.9.1 1.7-.3 1.7-.7 0-.5.9-1.3 2-1.8 2-.9 1.9-1-.9-2.1-2.5-.9-3.2-.8-4.7.8M320 897.1c0 .5.5.7 1 .4.6-.3 1-.8 1-1.1 0-.2-.4-.4-1-.4-.5 0-1 .5-1 1.1M502 797.9c-13.5 4.4-21.6 11.4-28.2 24.8l-4.3 8.7v13c.1 12.1.3 13.7 3 20.4 1.6 4 4.9 9.7 7.2 12.7 4 5 12.6 12.4 14.6 12.5.5 0-1.9-3-5.3-6.8-7.5-8.2-10.3-12.8-13.5-22.1-3.4-10.1-4-17.1-2.1-26.1 2.3-10.7 6.6-18.9 13.2-24.9 5.8-5.4 15.2-10.4 22.3-12 2.3-.5 4.5-1.2 4.8-1.5 1.3-1.3-6.5-.4-11.7 1.3M464.6 821.5c-.9 2.6-.7 3.2.5 1.2.6-1 .9-2.1.6-2.3-.2-.3-.7.2-1.1 1.1"/><path d="M507 823.1c-8.6 3.9-13.7 11-14.7 20.3-1.5 15.1 10.8 29.5 24.4 28.4 6.5-.6 13.6-4.8 17.6-10.4 3.8-5.4 5.6-15.6 3.9-22-3.9-14.6-18.3-22.2-31.2-16.3m16.8 2.3c1.5.8 4.1 2.9 5.9 4.8 8.7 9.1 8.4 21.7-.9 30.5-4.1 3.9-7.6 5.3-13.4 5.3-5.2 0-8.8-1.6-12.6-5.7-9.7-10.1-7-26.5 5.7-34.4 3.6-2.3 11.4-2.5 15.3-.5M723.6 824c-5.3 2.7-8.3 5.6-10.9 10.5-2.9 5.4-3.1 19.3-.3 24.5 4.5 8.6 11.9 13.3 20.6 13.3 6.2 0 10.2-1.7 16-6.9 10.7-9.7 8.6-31-3.9-39.9-5.6-3.9-15.5-4.6-21.5-1.5m16.9 1.9c4.5 2 9.1 6.9 11.2 11.8 1.7 4.2 1.7 13.5-.1 17.7-3.2 7.6-14.3 12.8-22.4 10.6-14.6-3.9-19.1-24.1-7.9-35.9 5.9-6.1 12-7.5 19.2-4.2M825.4 833c-7.9 1.8-13.3 9.1-14.1 18.9-.6 7.5 3.3 15.5 9.2 18.9 5.7 3.2 14.8 2.8 19.8-1.1 9.3-7.1 10.2-22.5 1.8-32.1-3.4-3.9-11-6-16.7-4.6m10 3.4c5.5 2.3 9 7.8 9.4 15 .6 10.4-4.8 16.7-14.3 16.8-11.5.2-18.1-13.1-12.4-24.8 3.5-7.4 10.1-10 17.3-7M351.5 823.9c-.3.5 0 1.3.6 1.7.7.4.9.3.5-.4-.3-.5 0-1.3.6-1.5.9-.4 1-.6.1-.6-.6-.1-1.4.3-1.8.8M348 824.4c0 .2.8 1 1.8 1.7 1.5 1.3 1.6 1.2.3-.4s-2.1-2.1-2.1-1.3M346.5 828c-.3.6.1.7.9.4 1.8-.7 2.1-1.4.7-1.4-.6 0-1.3.4-1.6 1M346.5 843c-.3.5-.1 1 .4 1 .6 0 1.1-.5 1.1-1 0-.6-.2-1-.4-1-.3 0-.8.4-1.1 1M335 848.1c0 .5.5.7 1 .4.6-.3 1-.8 1-1.1 0-.2-.4-.4-1-.4-.5 0-1 .5-1 1.1M344.5 851.1c-1.1 1.6-.1 1.9 1.3.3.7-.8.8-1.4.3-1.4s-1.3.5-1.6 1.1M169.6 834.3c-11.8 7.2-13.9 24.5-3.9 33.9 8.4 8 20.2 7.4 28-1.5 6.3-7.2 6.9-16.9 1.7-25.4-5.6-9.1-17.2-12.2-25.8-7m14.7 1.1c4.4 1.8 9.5 7.8 10.3 12.1.3 2 .4 5.7.1 8.3-.4 3.7-1.2 5.3-4 7.9-4 3.6-10.3 5.7-14.4 4.7-6.9-1.7-12.6-9.3-12.5-16.7.1-5.8 4-12.8 8.8-15.4 4.5-2.6 7.2-2.8 11.7-.9M224 826c0 .5.5 1 1.1 1 .5 0 .7-.5.4-1-.3-.6-.8-1-1.1-1-.2 0-.4.4-.4 1M82.6 923.5c-1.1 2.8-.7 3.5 2 3.5 2.1 0 2.5-.4 2.2-2.2-.4-2.7-3.3-3.6-4.2-1.3M909.7 923.7c-.4.3-.7 1.7-.7 3 0 1.8.5 2.3 2.5 2.3 1.4 0 2.8-.7 3.1-1.5 1.1-2.7-3-5.8-4.9-3.8M67.3 929.7c-.7.2-1.3 1.3-1.3 2.4 0 1.3.7 1.9 2.4 1.9 3 0 4.2-1.6 2.6-3.5-1.3-1.6-1.7-1.7-3.7-.8M975.5 931c-.9 1.5.4 3 2.6 3 1.2 0 1.9-.7 1.9-2 0-2.1-3.3-2.9-4.5-1M45.7 931.6c-.9 1 .2 2.4 1.9 2.4.8 0 1.4-.7 1.4-1.5 0-1.5-2.1-2.1-3.3-.9M964 932.6c0 1.7 2.2 1.4 2.8-.4.2-.7-.3-1.2-1.2-1.2s-1.6.7-1.6 1.6"/></svg>